Rubik-Black.ufo
<glyph name="quotedbl" format="1">
  <advance width="519"/>
  <unicode hex="0022"/>
  <outline>
    <contour>
      <point x="56" y="710" type="line" name="hr00" smooth="yes"/>
      <point x="37" y="710"/>
      <point x="26" y="696"/>
      <point x="29" y="674" type="curve" smooth="yes"/>
      <point x="56" y="440" type="line" smooth="yes"/>
      <point x="58" y="424"/>
      <point x="65" y="408"/>
      <point x="91" y="408" type="curve" smooth="yes"/>
      <point x="173" y="408" type="line" smooth="yes"/>
      <point x="199" y="408"/>
      <point x="206" y="424"/>
      <point x="208" y="440" type="curve" smooth="yes"/>
      <point x="235" y="674" type="line" smooth="yes"/>
      <point x="238" y="696"/>
      <point x="227" y="710"/>
      <point x="208" y="710" type="curve" smooth="yes"/>
    </contour>
    <contour>
      <point x="311" y="710" type="line" smooth="yes"/>
      <point x="292" y="710"/>
      <point x="281" y="696"/>
      <point x="284" y="674" type="curve" smooth="yes"/>
      <point x="311" y="440" type="line" smooth="yes"/>
      <point x="313" y="424"/>
      <point x="320" y="408"/>
      <point x="346" y="408" type="curve" smooth="yes"/>
      <point x="428" y="408" type="line" smooth="yes"/>
      <point x="454" y="408"/>
      <point x="461" y="424"/>
      <point x="463" y="440" type="curve" smooth="yes"/>
      <point x="490" y="674" type="line" smooth="yes"/>
      <point x="493" y="696"/>
      <point x="482" y="710"/>
      <point x="463" y="710" type="curve" smooth="yes"/>
    </contour>
  </outline>
</glyph>
<glyph name="dollar" format="1">
  <advance width="711"/>
  <unicode hex="0024"/>
  <outline>
    <contour>
      <point x="440" y="773" type="line" name="hr00"/>
      <point x="440" y="788"/>
      <point x="428" y="800"/>
      <point x="413" y="800" type="curve"/>
      <point x="292" y="800" type="line"/>
      <point x="277" y="800"/>
      <point x="265" y="788"/>
      <point x="265" y="773" type="curve"/>
      <point x="265" y="703" type="line"/>
      <point x="129" y="679"/>
      <point x="42" y="594"/>
      <point x="42" y="480" type="curve" smooth="yes"/>
      <point x="42" y="347"/>
      <point x="142" y="281"/>
      <point x="300" y="260" type="curve" smooth="yes"/>
      <point x="399" y="247"/>
      <point x="429" y="237"/>
      <point x="429" y="213" type="curve" smooth="yes"/>
      <point x="429" y="195"/>
      <point x="399" y="185"/>
      <point x="354" y="185" type="curve" smooth="yes"/>
      <point x="321" y="185"/>
      <point x="299" y="193"/>
      <point x="280" y="208" type="curve" smooth="yes"/>
      <point x="266" y="219"/>
      <point x="258" y="225"/>
      <point x="237" y="225" type="curve"/>
      <point x="47" y="225" type="line"/>
      <point x="35" y="225"/>
      <point x="25" y="215"/>
      <point x="25" y="203" type="curve" smooth="yes"/>
      <point x="27" y="108"/>
      <point x="104" y="19"/>
      <point x="265" y="-4" type="curve"/>
      <point x="265" y="-73" type="line"/>
      <point x="265" y="-88"/>
      <point x="277" y="-100"/>
      <point x="292" y="-100" type="curve"/>
      <point x="413" y="-100" type="line"/>
      <point x="428" y="-100"/>
      <point x="440" y="-88"/>
      <point x="440" y="-73" type="curve"/>
      <point x="440" y="-3" type="line"/>
      <point x="584" y="20"/>
      <point x="686" y="103"/>
      <point x="686" y="226" type="curve" smooth="yes"/>
      <point x="686" y="356"/>
      <point x="610" y="419"/>
      <point x="410" y="444" type="curve" smooth="yes"/>
      <point x="320" y="455"/>
      <point x="299" y="468"/>
      <point x="299" y="487" type="curve" smooth="yes"/>
      <point x="299" y="504"/>
      <point x="313" y="515"/>
      <point x="347" y="515" type="curve" smooth="yes"/>
      <point x="375" y="515"/>
      <point x="393" y="503"/>
      <point x="400" y="497" type="curve" smooth="yes"/>
      <point x="412" y="486"/>
      <point x="421" y="481"/>
      <point x="440" y="481" type="curve"/>
      <point x="640" y="481" type="line"/>
      <point x="651" y="481"/>
      <point x="661" y="491"/>
      <point x="661" y="503" type="curve" smooth="yes"/>
      <point x="658" y="575"/>
      <point x="581" y="670"/>
      <point x="440" y="700" type="curve"/>
    </contour>
  </outline>
</glyph>
<glyph name="parenleft" format="1">
  <advance width="423"/>
  <unicode hex="0028"/>
  <outline>
    <contour>
      <point x="29" y="309" type="curve" name="hr00" smooth="yes"/>
      <point x="29" y="-31"/>
      <point x="182" y="-159"/>
      <point x="374" y="-159" type="curve" smooth="yes"/>
      <point x="389" y="-159"/>
      <point x="401" y="-147"/>
      <point x="401" y="-132" type="curve" smooth="yes"/>
      <point x="401" y="-5" type="line" smooth="yes"/>
      <point x="401" y="10"/>
      <point x="389" y="21"/>
      <point x="374" y="22" type="curve" smooth="yes"/>
      <point x="266" y="32"/>
      <point x="240" y="165"/>
      <point x="240" y="309" type="curve" smooth="yes"/>
      <point x="240" y="453"/>
      <point x="266" y="585"/>
      <point x="374" y="595" type="curve" smooth="yes"/>
      <point x="389" y="596"/>
      <point x="401" y="607"/>
      <point x="401" y="622" type="curve" smooth="yes"/>
      <point x="401" y="749" type="line" smooth="yes"/>
      <point x="401" y="764"/>
      <point x="389" y="776"/>
      <point x="374" y="776" type="curve" smooth="yes"/>
      <point x="182" y="776"/>
      <point x="29" y="649"/>
    </contour>
  </outline>
</glyph>
<glyph name="comma" format="1">
  <advance width="303"/>
  <unicode hex="002C"/>
  <outline>
    <contour>
      <point x="18" y="-51" type="line" name="hr00" smooth="yes"/>
      <point x="18" y="-53"/>
      <point x="18" y="-51"/>
      <point x="18" y="-53" type="curve" smooth="yes"/>
      <point x="18" y="-65"/>
      <point x="28" y="-75"/>
      <point x="40" y="-75" type="curve" smooth="yes"/>
      <point x="141" y="-75" type="line" smooth="yes"/>
      <point x="167" y="-75"/>
      <point x="179" y="-56"/>
      <point x="184" y="-43" type="curve" smooth="yes"/>
      <point x="279" y="199" type="line" smooth="yes"/>
      <point x="280" y="202"/>
      <point x="280" y="204"/>
      <point x="280" y="206" type="curve" smooth="yes"/>
      <point x="280" y="218"/>
      <point x="270" y="228"/>
      <point x="258" y="228" type="curve" smooth="yes"/>
      <point x="98" y="228" type="line" smooth="yes"/>
      <point x="71" y="228"/>
      <point x="58" y="207"/>
      <point x="55" y="189" type="curve" smooth="yes"/>
    </contour>
  </outline>
</glyph>
<glyph name="hyphen" format="1">
  <advance width="471"/>
  <unicode hex="002D"/>
  <outline>
    <contour>
      <point x="73" y="398" type="line" name="hr00" smooth="yes"/>
      <point x="58" y="398"/>
      <point x="46" y="386"/>
      <point x="46" y="371" type="curve" smooth="yes"/>
      <point x="46" y="229" type="line" smooth="yes"/>
      <point x="46" y="214"/>
      <point x="58" y="202"/>
      <point x="73" y="202" type="curve" smooth="yes"/>
      <point x="398" y="202" type="line" smooth="yes"/>
      <point x="413" y="202"/>
      <point x="425" y="214"/>
      <point x="425" y="229" type="curve" smooth="yes"/>
      <point x="425" y="371" type="line" smooth="yes"/>
      <point x="425" y="386"/>
      <point x="413" y="398"/>
      <point x="398" y="398" type="curve" smooth="yes"/>
    </contour>
  </outline>
</glyph>
<glyph name="eight" format="1">
  <advance width="712"/>
  <unicode hex="0038"/>
  <outline>
    <contour>
      <point x="355" y="710" type="curve" smooth="yes"/>
      <point x="136" y="710"/>
      <point x="61" y="606"/>
      <point x="61" y="500" type="curve" smooth="yes"/>
      <point x="61" y="445"/>
      <point x="82" y="400"/>
      <point x="123" y="370" type="curve"/>
      <point x="73" y="341"/>
      <point x="36" y="284"/>
      <point x="36" y="218" type="curve" name="hr01" smooth="yes"/>
      <point x="36" y="104"/>
      <point x="121" y="-10"/>
      <point x="355" y="-10" type="curve" smooth="yes"/>
      <point x="588" y="-10"/>
      <point x="676" y="103"/>
      <point x="676" y="216" type="curve" smooth="yes"/>
      <point x="676" y="283"/>
      <point x="641" y="343"/>
      <point x="587" y="370" type="curve"/>
      <point x="628" y="402"/>
      <point x="646" y="447"/>
      <point x="646" y="502" type="curve" smooth="yes"/>
      <point x="646" y="608"/>
      <point x="572" y="710"/>
    </contour>
    <contour>
      <point x="425" y="217" type="curve" smooth="yes"/>
      <point x="425" y="180"/>
      <point x="395" y="158"/>
      <point x="355" y="158" type="curve" smooth="yes"/>
      <point x="315" y="158"/>
      <point x="285" y="180"/>
      <point x="285" y="217" type="curve" smooth="yes"/>
      <point x="285" y="254"/>
      <point x="315" y="276"/>
      <point x="355" y="276" type="curve" smooth="yes"/>
      <point x="395" y="276"/>
      <point x="425" y="254"/>
    </contour>
    <contour>
      <point x="419" y="487" type="curve" smooth="yes"/>
      <point x="419" y="457"/>
      <point x="395" y="433"/>
      <point x="355" y="433" type="curve" smooth="yes"/>
      <point x="315" y="433"/>
      <point x="292" y="457"/>
      <point x="292" y="487" type="curve" smooth="yes"/>
      <point x="292" y="517"/>
      <point x="315" y="541"/>
      <point x="355" y="541" type="curve" smooth="yes"/>
      <point x="395" y="541"/>
      <point x="419" y="517"/>
    </contour>
  </outline>
</glyph>
<glyph name="equal" format="1">
  <advance width="563"/>
  <unicode hex="003D"/>
  <outline>
    <contour>
      <point x="79" y="510" type="line" name="hr00" smooth="yes"/>
      <point x="64" y="510"/>
      <point x="52" y="498"/>
      <point x="52" y="483" type="curve" smooth="yes"/>
      <point x="52" y="367" type="line" smooth="yes"/>
      <point x="52" y="352"/>
      <point x="64" y="340"/>
      <point x="79" y="340" type="curve" smooth="yes"/>
      <point x="484" y="340" type="line" smooth="yes"/>
      <point x="499" y="340"/>
      <point x="511" y="352"/>
      <point x="511" y="367" type="curve" smooth="yes"/>
      <point x="511" y="483" type="line" smooth="yes"/>
      <point x="511" y="498"/>
      <point x="499" y="510"/>
      <point x="484" y="510" type="curve" smooth="yes"/>
    </contour>
    <contour>
      <point x="79" y="260" type="line" smooth="yes"/>
      <point x="64" y="260"/>
      <point x="52" y="248"/>
      <point x="52" y="233" type="curve" smooth="yes"/>
      <point x="52" y="117" type="line" smooth="yes"/>
      <point x="52" y="102"/>
      <point x="64" y="90"/>
      <point x="79" y="90" type="curve" smooth="yes"/>
      <point x="484" y="90" type="line" smooth="yes"/>
      <point x="499" y="90"/>
      <point x="511" y="102"/>
      <point x="511" y="117" type="curve" smooth="yes"/>
      <point x="511" y="233" type="line" smooth="yes"/>
      <point x="511" y="248"/>
      <point x="499" y="260"/>
      <point x="484" y="260" type="curve" smooth="yes"/>
    </contour>
  </outline>
</glyph>
<glyph name="B" format="1">
  <advance width="734"/>
  <unicode hex="0042"/>
  <outline>
    <contour>
      <point x="430" y="482" type="curve" name="hr00" smooth="yes"/>
      <point x="430" y="461"/>
      <point x="418" y="437"/>
      <point x="389" y="437" type="curve" smooth="yes"/>
      <point x="305" y="437" type="line"/>
      <point x="305" y="528" type="line"/>
      <point x="389" y="528" type="line" smooth="yes"/>
      <point x="418" y="528"/>
      <point x="430" y="503"/>
    </contour>
    <contour>
      <point x="305" y="270" type="line"/>
      <point x="398" y="270" type="line" smooth="yes"/>
      <point x="428" y="270"/>
      <point x="444" y="245"/>
      <point x="444" y="221" type="curve" smooth="yes"/>
      <point x="444" y="199"/>
      <point x="431" y="172"/>
      <point x="398" y="172" type="curve" smooth="yes"/>
      <point x="305" y="172" type="line"/>
    </contour>
    <contour>
      <point x="424" y="0" type="line" smooth="yes"/>
      <point x="605" y="0"/>
      <point x="706" y="70"/>
      <point x="706" y="220" type="curve" smooth="yes"/>
      <point x="706" y="286"/>
      <point x="662" y="344"/>
      <point x="611" y="365" type="curve"/>
      <point x="643" y="381"/>
      <point x="691" y="426"/>
      <point x="691" y="490" type="curve" smooth="yes"/>
      <point x="691" y="630"/>
      <point x="605" y="700"/>
      <point x="414" y="700" type="curve" smooth="yes"/>
      <point x="82" y="700" type="line" smooth="yes"/>
      <point x="67" y="700"/>
      <point x="55" y="688"/>
      <point x="55" y="673" type="curve" smooth="yes"/>
      <point x="55" y="27" type="line" smooth="yes"/>
      <point x="55" y="12"/>
      <point x="67" y="0"/>
      <point x="82" y="0" type="curve" smooth="yes"/>
    </contour>
  </outline>
</glyph>
<glyph name="H" format="1">
  <advance width="772"/>
  <unicode hex="0048"/>
  <outline>
    <contour>
      <point x="494" y="700" type="line" name="hr00" smooth="yes"/>
      <point x="479" y="700"/>
      <point x="467" y="688"/>
      <point x="467" y="673" type="curve" smooth="yes"/>
      <point x="467" y="463" type="line"/>
      <point x="305" y="463" type="line"/>
      <point x="305" y="673" type="line" smooth="yes"/>
      <point x="305" y="688"/>
      <point x="293" y="700"/>
      <point x="278" y="700" type="curve" smooth="yes"/>
      <point x="82" y="700" type="line" smooth="yes"/>
      <point x="67" y="700"/>
      <point x="55" y="688"/>
      <point x="55" y="673" type="curve" smooth="yes"/>
      <point x="55" y="27" type="line" smooth="yes"/>
      <point x="55" y="11"/>
      <point x="67" y="0"/>
      <point x="82" y="0" type="curve" smooth="yes"/>
      <point x="278" y="0" type="line" smooth="yes"/>
      <point x="293" y="0"/>
      <point x="305" y="12"/>
      <point x="305" y="27" type="curve" smooth="yes"/>
      <point x="305" y="243" type="line"/>
      <point x="467" y="243" type="line"/>
      <point x="467" y="27" type="line" smooth="yes"/>
      <point x="467" y="12"/>
      <point x="479" y="0"/>
      <point x="494" y="0" type="curve" smooth="yes"/>
      <point x="690" y="0" type="line" smooth="yes"/>
      <point x="705" y="0"/>
      <point x="717" y="12"/>
      <point x="717" y="27" type="curve" smooth="yes"/>
      <point x="717" y="673" type="line" smooth="yes"/>
      <point x="717" y="688"/>
      <point x="705" y="700"/>
      <point x="690" y="700" type="curve" smooth="yes"/>
    </contour>
  </outline>
</glyph>
<glyph name="J" format="1">
  <advance width="702"/>
  <unicode hex="004A"/>
  <outline>
    <contour>
      <point x="653" y="673" type="line" name="hr00" smooth="yes"/>
      <point x="653" y="688"/>
      <point x="641" y="700"/>
      <point x="626" y="700" type="curve" smooth="yes"/>
      <point x="97" y="700" type="line" smooth="yes"/>
      <point x="82" y="700"/>
      <point x="70" y="688"/>
      <point x="70" y="673" type="curve" smooth="yes"/>
      <point x="70" y="524" type="line" smooth="yes"/>
      <point x="70" y="509"/>
      <point x="82" y="497"/>
      <point x="97" y="497" type="curve" smooth="yes"/>
      <point x="394" y="497" type="line"/>
      <point x="394" y="266" type="line" smooth="yes"/>
      <point x="394" y="205"/>
      <point x="371" y="185"/>
      <point x="335" y="185" type="curve" smooth="yes"/>
      <point x="302" y="185"/>
      <point x="290" y="198"/>
      <point x="277" y="225" type="curve" smooth="yes"/>
      <point x="267" y="247"/>
      <point x="258" y="257"/>
      <point x="236" y="257" type="curve" smooth="yes"/>
      <point x="32" y="257" type="line" smooth="yes"/>
      <point x="20" y="257"/>
      <point x="10" y="247"/>
      <point x="10" y="235" type="curve" smooth="yes"/>
      <point x="13" y="78"/>
      <point x="162" y="-10"/>
      <point x="327" y="-10" type="curve" smooth="yes"/>
      <point x="509" y="-10"/>
      <point x="653" y="73"/>
      <point x="653" y="258" type="curve" smooth="yes"/>
    </contour>
  </outline>
</glyph>
<glyph name="K" format="1">
  <advance width="715"/>
  <unicode hex="004B"/>
  <outline>
    <contour>
      <point x="513" y="365" type="line" name="hr00"/>
      <point x="693" y="667" type="line" smooth="yes"/>
      <point x="695" y="670"/>
      <point x="696" y="674"/>
      <point x="696" y="678" type="curve" smooth="yes"/>
      <point x="696" y="690"/>
      <point x="686" y="700"/>
      <point x="674" y="700" type="curve" smooth="yes"/>
      <point x="453" y="700" type="line" smooth="yes"/>
      <point x="431" y="700"/>
      <point x="419" y="689"/>
      <point x="413" y="678" type="curve" smooth="yes"/>
      <point x="300" y="475" type="line"/>
      <point x="300" y="673" type="line" smooth="yes"/>
      <point x="300" y="688"/>
      <point x="288" y="700"/>
      <point x="273" y="700" type="curve" smooth="yes"/>
      <point x="82" y="700" type="line" smooth="yes"/>
      <point x="67" y="700"/>
      <point x="55" y="688"/>
      <point x="55" y="673" type="curve" smooth="yes"/>
      <point x="55" y="27" type="line" smooth="yes"/>
      <point x="55" y="12"/>
      <point x="67" y="0"/>
      <point x="82" y="0" type="curve" smooth="yes"/>
      <point x="273" y="0" type="line" smooth="yes"/>
      <point x="288" y="0"/>
      <point x="300" y="12"/>
      <point x="300" y="27" type="curve" smooth="yes"/>
      <point x="300" y="241" type="line"/>
      <point x="422" y="23" type="line" smooth="yes"/>
      <point x="425" y="17"/>
      <point x="436" y="0"/>
      <point x="463" y="0" type="curve" smooth="yes"/>
      <point x="691" y="0" type="line" smooth="yes"/>
      <point x="703" y="0"/>
      <point x="713" y="10"/>
      <point x="713" y="22" type="curve" smooth="yes"/>
      <point x="713" y="25"/>
      <point x="712" y="30"/>
      <point x="710" y="33" type="curve" smooth="yes"/>
    </contour>
  </outline>
</glyph>
<glyph name="U" format="1">
  <advance width="746"/>
  <unicode hex="0055"/>
  <outline>
    <contour>
      <point x="474" y="700" type="line" name="hr00" smooth="yes"/>
      <point x="459" y="700"/>
      <point x="447" y="688"/>
      <point x="447" y="673" type="curve" smooth="yes"/>
      <point x="447" y="268" type="line" smooth="yes"/>
      <point x="447" y="218"/>
      <point x="422" y="191"/>
      <point x="373" y="191" type="curve" smooth="yes"/>
      <point x="324" y="191"/>
      <point x="299" y="218"/>
      <point x="299" y="268" type="curve" smooth="yes"/>
      <point x="299" y="673" type="line" smooth="yes"/>
      <point x="299" y="688"/>
      <point x="287" y="700"/>
      <point x="272" y="700" type="curve" smooth="yes"/>
      <point x="76" y="700" type="line" smooth="yes"/>
      <point x="61" y="700"/>
      <point x="49" y="688"/>
      <point x="49" y="673" type="curve" smooth="yes"/>
      <point x="49" y="264" type="line" smooth="yes"/>
      <point x="49" y="75"/>
      <point x="182" y="-10"/>
      <point x="374" y="-10" type="curve" smooth="yes"/>
      <point x="564" y="-10"/>
      <point x="697" y="75"/>
      <point x="697" y="264" type="curve" smooth="yes"/>
      <point x="697" y="673" type="line" smooth="yes"/>
      <point x="697" y="688"/>
      <point x="685" y="700"/>
      <point x="670" y="700" type="curve" smooth="yes"/>
    </contour>
  </outline>
</glyph>
<glyph name="V" format="1">
  <advance width="726"/>
  <unicode hex="0056"/>
  <outline>
    <contour>
      <point x="363" y="295" type="line" name="hr00"/>
      <point x="458" y="667" type="line" smooth="yes"/>
      <point x="462" y="682"/>
      <point x="476" y="700"/>
      <point x="503" y="700" type="curve" smooth="yes"/>
      <point x="689" y="700" type="line" smooth="yes"/>
      <point x="701" y="700"/>
      <point x="711" y="690"/>
      <point x="711" y="678" type="curve" smooth="yes"/>
      <point x="711" y="676"/>
      <point x="711" y="675"/>
      <point x="710" y="671" type="curve" smooth="yes"/>
      <point x="522" y="33" type="line" smooth="yes"/>
      <point x="518" y="18"/>
      <point x="504" y="0"/>
      <point x="477" y="0" type="curve" smooth="yes"/>
      <point x="249" y="0" type="line" smooth="yes"/>
      <point x="222" y="0"/>
      <point x="208" y="18"/>
      <point x="204" y="33" type="curve" smooth="yes"/>
      <point x="16" y="671" type="line" smooth="yes"/>
      <point x="15" y="675"/>
      <point x="15" y="676"/>
      <point x="15" y="678" type="curve" smooth="yes"/>
      <point x="15" y="690"/>
      <point x="25" y="700"/>
      <point x="37" y="700" type="curve" smooth="yes"/>
      <point x="223" y="700" type="line" smooth="yes"/>
      <point x="250" y="700"/>
      <point x="264" y="682"/>
      <point x="268" y="667" type="curve" smooth="yes"/>
    </contour>
  </outline>
</glyph>
<glyph name="bracketright" format="1">
  <advance width="432"/>
  <unicode hex="005D"/>
  <outline>
    <contour>
      <point x="51" y="776" type="line" name="hr00" smooth="yes"/>
      <point x="36" y="776"/>
      <point x="24" y="764"/>
      <point x="24" y="749" type="curve" smooth="yes"/>
      <point x="24" y="620" type="line" smooth="yes"/>
      <point x="24" y="605"/>
      <point x="36" y="593"/>
      <point x="51" y="593" type="curve" smooth="yes"/>
      <point x="170" y="593" type="line"/>
      <point x="170" y="42" type="line"/>
      <point x="51" y="42" type="line" smooth="yes"/>
      <point x="36" y="42"/>
      <point x="24" y="30"/>
      <point x="24" y="15" type="curve" smooth="yes"/>
      <point x="24" y="-132" type="line" smooth="yes"/>
      <point x="24" y="-147"/>
      <point x="36" y="-159"/>
      <point x="51" y="-159" type="curve" smooth="yes"/>
      <point x="354" y="-159" type="line" smooth="yes"/>
      <point x="369" y="-159"/>
      <point x="381" y="-147"/>
      <point x="381" y="-132" type="curve" smooth="yes"/>
      <point x="381" y="749" type="line" smooth="yes"/>
      <point x="381" y="764"/>
      <point x="369" y="776"/>
      <point x="354" y="776" type="curve" smooth="yes"/>
    </contour>
  </outline>
</glyph>
<glyph name="a" format="1">
  <advance width="622"/>
  <unicode hex="0061"/>
  <outline>
    <contour>
      <point x="17" y="149" type="curve" smooth="yes"/>
      <point x="17" y="59"/>
      <point x="96" y="-10"/>
      <point x="211" y="-10" type="curve" smooth="yes"/>
      <point x="273" y="-10"/>
      <point x="324" y="15"/>
      <point x="353" y="55" type="curve"/>
      <point x="353" y="27" type="line" smooth="yes"/>
      <point x="353" y="12"/>
      <point x="365" y="0"/>
      <point x="380" y="0" type="curve" name="hr01" smooth="yes"/>
      <point x="555" y="0" type="line" smooth="yes"/>
      <point x="570" y="0"/>
      <point x="582" y="12"/>
      <point x="582" y="27" type="curve" smooth="yes"/>
      <point x="582" y="314" type="line" smooth="yes"/>
      <point x="582" y="451"/>
      <point x="495" y="530"/>
      <point x="314" y="530" type="curve" smooth="yes"/>
      <point x="127" y="530"/>
      <point x="54" y="431"/>
      <point x="51" y="380" type="curve" smooth="yes"/>
      <point x="50" y="367"/>
      <point x="60" y="358"/>
      <point x="73" y="358" type="curve" smooth="yes"/>
      <point x="243" y="358" type="line" smooth="yes"/>
      <point x="275" y="358"/>
      <point x="278" y="390"/>
      <point x="312" y="390" type="curve" name="hr02" smooth="yes"/>
      <point x="340" y="390"/>
      <point x="342" y="375"/>
      <point x="342" y="339" type="curve"/>
      <point x="236" y="322" type="line"/>
      <point x="103" y="299"/>
      <point x="17" y="246"/>
    </contour>
    <contour>
      <point x="280" y="138" type="curve" smooth="yes"/>
      <point x="255" y="138"/>
      <point x="242" y="151"/>
      <point x="242" y="166" type="curve" smooth="yes"/>
      <point x="242" y="180"/>
      <point x="251" y="195"/>
      <point x="286" y="203" type="curve" smooth="yes"/>
      <point x="345" y="216" type="line"/>
      <point x="345" y="162"/>
      <point x="319" y="138"/>
    </contour>
  </outline>
</glyph>
<glyph name="d" format="1">
  <advance width="661"/>
  <unicode hex="0064"/>
  <outline>
    <contour>
      <point x="244" y="530" type="curve" smooth="yes"/>
      <point x="128" y="530"/>
      <point x="38" y="457"/>
      <point x="32" y="300" type="curve" smooth="yes"/>
      <point x="31" y="270"/>
      <point x="31" y="251"/>
      <point x="32" y="221" type="curve" smooth="yes"/>
      <point x="39" y="54"/>
      <point x="128" y="-10"/>
      <point x="244" y="-10" type="curve" smooth="yes"/>
      <point x="313" y="-10"/>
      <point x="360" y="14"/>
      <point x="392" y="50" type="curve"/>
      <point x="392" y="27" type="line" smooth="yes"/>
      <point x="392" y="12"/>
      <point x="404" y="0"/>
      <point x="419" y="0" type="curve" name="hr01" smooth="yes"/>
      <point x="589" y="0" type="line" smooth="yes"/>
      <point x="604" y="0"/>
      <point x="616" y="12"/>
      <point x="616" y="27" type="curve" smooth="yes"/>
      <point x="616" y="683" type="line" smooth="yes"/>
      <point x="616" y="698"/>
      <point x="604" y="710"/>
      <point x="589" y="710" type="curve" smooth="yes"/>
      <point x="404" y="710" type="line" smooth="yes"/>
      <point x="389" y="710"/>
      <point x="377" y="698"/>
      <point x="377" y="683" type="curve" smooth="yes"/>
      <point x="377" y="483" type="line"/>
      <point x="345" y="512"/>
      <point x="300" y="530"/>
    </contour>
    <contour>
      <point x="277" y="293" type="curve" smooth="yes"/>
      <point x="281" y="329"/>
      <point x="290" y="351"/>
      <point x="327" y="351" type="curve" smooth="yes"/>
      <point x="361" y="351"/>
      <point x="375" y="333"/>
      <point x="377" y="301" type="curve" smooth="yes"/>
      <point x="379" y="271"/>
      <point x="379" y="257"/>
      <point x="377" y="227" type="curve" smooth="yes"/>
      <point x="375" y="191"/>
      <point x="364" y="169"/>
      <point x="327" y="169" type="curve" name="hr02" smooth="yes"/>
      <point x="290" y="169"/>
      <point x="281" y="191"/>
      <point x="277" y="227" type="curve" smooth="yes"/>
      <point x="275" y="247"/>
      <point x="275" y="273"/>
    </contour>
  </outline>
</glyph>
<glyph name="f" format="1">
  <advance width="492"/>
  <unicode hex="0066"/>
  <outline>
    <contour>
      <point x="340" y="532" type="line" name="hr00" smooth="yes"/>
      <point x="340" y="553"/>
      <point x="353" y="565"/>
      <point x="383" y="565" type="curve" smooth="yes"/>
      <point x="464" y="565" type="line" smooth="yes"/>
      <point x="479" y="565"/>
      <point x="491" y="577"/>
      <point x="491" y="592" type="curve" smooth="yes"/>
      <point x="491" y="713" type="line" smooth="yes"/>
      <point x="491" y="728"/>
      <point x="479" y="740"/>
      <point x="464" y="740" type="curve" smooth="yes"/>
      <point x="371" y="740" type="line" smooth="yes"/>
      <point x="226" y="740"/>
      <point x="111" y="701"/>
      <point x="111" y="537" type="curve" smooth="yes"/>
      <point x="111" y="520" type="line"/>
      <point x="42" y="520" type="line" smooth="yes"/>
      <point x="27" y="520"/>
      <point x="15" y="508"/>
      <point x="15" y="493" type="curve" smooth="yes"/>
      <point x="15" y="372" type="line" smooth="yes"/>
      <point x="15" y="357"/>
      <point x="27" y="345"/>
      <point x="42" y="345" type="curve" smooth="yes"/>
      <point x="111" y="345" type="line"/>
      <point x="111" y="27" type="line" smooth="yes"/>
      <point x="111" y="12"/>
      <point x="123" y="0"/>
      <point x="138" y="0" type="curve" smooth="yes"/>
      <point x="313" y="0" type="line" smooth="yes"/>
      <point x="328" y="0"/>
      <point x="340" y="12"/>
      <point x="340" y="27" type="curve" smooth="yes"/>
      <point x="340" y="345" type="line"/>
      <point x="454" y="345" type="line" smooth="yes"/>
      <point x="469" y="345"/>
      <point x="481" y="357"/>
      <point x="481" y="372" type="curve" smooth="yes"/>
      <point x="481" y="493" type="line" smooth="yes"/>
      <point x="481" y="508"/>
      <point x="469" y="520"/>
      <point x="454" y="520" type="curve" smooth="yes"/>
      <point x="340" y="520" type="line"/>
    </contour>
  </outline>
</glyph>
<glyph name="n" format="1">
  <advance width="674"/>
  <unicode hex="006E"/>
  <outline>
    <contour>
      <point x="634" y="303" type="line" smooth="yes"/>
      <point x="634" y="461"/>
      <point x="541" y="530"/>
      <point x="440" y="530" type="curve" smooth="yes"/>
      <point x="369" y="530"/>
      <point x="307" y="499"/>
      <point x="274" y="460" type="curve"/>
      <point x="274" y="493" type="line" smooth="yes"/>
      <point x="274" y="508"/>
      <point x="262" y="520"/>
      <point x="247" y="520" type="curve" name="hr01" smooth="yes"/>
      <point x="72" y="520" type="line" smooth="yes"/>
      <point x="57" y="520"/>
      <point x="45" y="508"/>
      <point x="45" y="493" type="curve" smooth="yes"/>
      <point x="45" y="27" type="line" smooth="yes"/>
      <point x="45" y="12"/>
      <point x="57" y="0"/>
      <point x="72" y="0" type="curve" smooth="yes"/>
      <point x="262" y="0" type="line" smooth="yes"/>
      <point x="277" y="0"/>
      <point x="289" y="12"/>
      <point x="289" y="27" type="curve" smooth="yes"/>
      <point x="289" y="296" type="line" smooth="yes"/>
      <point x="289" y="332"/>
      <point x="307" y="351"/>
      <point x="339" y="351" type="curve" name="hr02" smooth="yes"/>
      <point x="371" y="351"/>
      <point x="389" y="332"/>
      <point x="389" y="296" type="curve" smooth="yes"/>
      <point x="389" y="27" type="line" smooth="yes"/>
      <point x="389" y="12"/>
      <point x="401" y="0"/>
      <point x="416" y="0" type="curve" smooth="yes"/>
      <point x="607" y="0" type="line" smooth="yes"/>
      <point x="622" y="0"/>
      <point x="634" y="12"/>
      <point x="634" y="27" type="curve" smooth="yes"/>
    </contour>
  </outline>
</glyph>
<glyph name="w" format="1">
  <advance width="869"/>
  <unicode hex="0077"/>
  <outline>
    <contour>
      <point x="481" y="520" type="line" name="hr00" smooth="yes"/>
      <point x="501" y="520"/>
      <point x="512" y="507"/>
      <point x="515" y="496" type="curve" smooth="yes"/>
      <point x="580" y="288" type="line"/>
      <point x="641" y="496" type="line" smooth="yes"/>
      <point x="644" y="507"/>
      <point x="655" y="520"/>
      <point x="675" y="520" type="curve" smooth="yes"/>
      <point x="829" y="520" type="line" smooth="yes"/>
      <point x="842" y="520"/>
      <point x="853" y="509"/>
      <point x="853" y="496" type="curve" smooth="yes"/>
      <point x="853" y="494"/>
      <point x="853" y="492"/>
      <point x="852" y="488" type="curve" smooth="yes"/>
      <point x="706" y="25" type="line" smooth="yes"/>
      <point x="702" y="13"/>
      <point x="693" y="0"/>
      <point x="673" y="0" type="curve" smooth="yes"/>
      <point x="539" y="0" type="line" smooth="yes"/>
      <point x="519" y="0"/>
      <point x="510" y="13"/>
      <point x="506" y="25" type="curve" smooth="yes"/>
      <point x="435" y="227" type="line"/>
      <point x="363" y="25" type="line" smooth="yes"/>
      <point x="359" y="13"/>
      <point x="350" y="0"/>
      <point x="330" y="0" type="curve" smooth="yes"/>
      <point x="196" y="0" type="line" smooth="yes"/>
      <point x="176" y="0"/>
      <point x="167" y="13"/>
      <point x="163" y="25" type="curve" smooth="yes"/>
      <point x="17" y="488" type="line" smooth="yes"/>
      <point x="16" y="492"/>
      <point x="16" y="494"/>
      <point x="16" y="496" type="curve" smooth="yes"/>
      <point x="16" y="509"/>
      <point x="27" y="520"/>
      <point x="40" y="520" type="curve" smooth="yes"/>
      <point x="194" y="520" type="line" smooth="yes"/>
      <point x="214" y="520"/>
      <point x="225" y="507"/>
      <point x="228" y="496" type="curve" smooth="yes"/>
      <point x="289" y="288" type="line"/>
      <point x="354" y="496" type="line" smooth="yes"/>
      <point x="357" y="507"/>
      <point x="368" y="520"/>
      <point x="388" y="520" type="curve" smooth="yes"/>
    </contour>
  </outline>
</glyph>
<glyph name="yen" format="1">
  <advance width="750"/>
  <unicode hex="00A5"/>
  <outline>
    <contour>
      <point x="133" y="303" type="line" name="hr00" smooth="yes"/>
      <point x="118" y="303"/>
      <point x="106" y="291"/>
      <point x="106" y="276" type="curve" smooth="yes"/>
      <point x="106" y="160" type="line" smooth="yes"/>
      <point x="106" y="145"/>
      <point x="118" y="133"/>
      <point x="133" y="133" type="curve" smooth="yes"/>
      <point x="250" y="133" type="line"/>
      <point x="250" y="27" type="line" smooth="yes"/>
      <point x="250" y="12"/>
      <point x="262" y="0"/>
      <point x="277" y="0" type="curve" smooth="yes"/>
      <point x="473" y="0" type="line" smooth="yes"/>
      <point x="488" y="0"/>
      <point x="500" y="12"/>
      <point x="500" y="27" type="curve" smooth="yes"/>
      <point x="500" y="133" type="line"/>
      <point x="618" y="133" type="line" smooth="yes"/>
      <point x="633" y="133"/>
      <point x="645" y="145"/>
      <point x="645" y="160" type="curve" smooth="yes"/>
      <point x="645" y="276" type="line" smooth="yes"/>
      <point x="645" y="291"/>
      <point x="633" y="303"/>
      <point x="618" y="303" type="curve" smooth="yes"/>
      <point x="541" y="303" type="line"/>
      <point x="725" y="669" type="line" smooth="yes"/>
      <point x="726" y="671"/>
      <point x="727" y="675"/>
      <point x="727" y="678" type="curve" smooth="yes"/>
      <point x="727" y="690"/>
      <point x="717" y="700"/>
      <point x="705" y="700" type="curve" smooth="yes"/>
      <point x="517" y="700" type="line" smooth="yes"/>
      <point x="490" y="700"/>
      <point x="478" y="681"/>
      <point x="475" y="675" type="curve" smooth="yes"/>
      <point x="375" y="474" type="line"/>
      <point x="275" y="675" type="line" smooth="yes"/>
      <point x="272" y="681"/>
      <point x="260" y="700"/>
      <point x="233" y="700" type="curve" smooth="yes"/>
      <point x="45" y="700" type="line" smooth="yes"/>
      <point x="33" y="700"/>
      <point x="23" y="690"/>
      <point x="23" y="678" type="curve" smooth="yes"/>
      <point x="23" y="675"/>
      <point x="24" y="671"/>
      <point x="25" y="669" type="curve" smooth="yes"/>
      <point x="208" y="303" type="line"/>
    </contour>
  </outline>
</glyph>
<glyph name="dieresis" format="1">
  <advance width="509"/>
  <unicode hex="00A8"/>
  <outline>
    <contour>
      <point x="73" y="765" type="line" name="hr00" smooth="yes"/>
      <point x="60" y="765"/>
      <point x="50" y="755"/>
      <point x="50" y="742" type="curve" smooth="yes"/>
      <point x="50" y="618" type="line" smooth="yes"/>
      <point x="50" y="605"/>
      <point x="60" y="595"/>
      <point x="73" y="595" type="curve" smooth="yes"/>
      <point x="197" y="595" type="line" smooth="yes"/>
      <point x="210" y="595"/>
      <point x="220" y="605"/>
      <point x="220" y="618" type="curve" smooth="yes"/>
      <point x="220" y="742" type="line" smooth="yes"/>
      <point x="220" y="755"/>
      <point x="210" y="765"/>
      <point x="197" y="765" type="curve" smooth="yes"/>
    </contour>
    <contour>
      <point x="312" y="765" type="line" smooth="yes"/>
      <point x="299" y="765"/>
      <point x="289" y="755"/>
      <point x="289" y="742" type="curve" smooth="yes"/>
      <point x="289" y="618" type="line" smooth="yes"/>
      <point x="289" y="605"/>
      <point x="299" y="595"/>
      <point x="312" y="595" type="curve" smooth="yes"/>
      <point x="436" y="595" type="line" smooth="yes"/>
      <point x="449" y="595"/>
      <point x="459" y="605"/>
      <point x="459" y="618" type="curve" smooth="yes"/>
      <point x="459" y="742" type="line" smooth="yes"/>
      <point x="459" y="755"/>
      <point x="449" y="765"/>
      <point x="436" y="765" type="curve" smooth="yes"/>
    </contour>
  </outline>
</glyph>
<glyph name="copyright" format="1">
  <advance width="792"/>
  <unicode hex="00A9"/>
  <outline>
    <contour>
      <point x="36" y="350" type="curve" smooth="yes"/>
      <point x="36" y="151"/>
      <point x="197" y="-10"/>
      <point x="396" y="-10" type="curve" smooth="yes"/>
      <point x="595" y="-10"/>
      <point x="756" y="151"/>
      <point x="756" y="350" type="curve" smooth="yes"/>
      <point x="756" y="549"/>
      <point x="595" y="710"/>
      <point x="396" y="710" type="curve" smooth="yes"/>
      <point x="197" y="710"/>
      <point x="36" y="549"/>
    </contour>
    <contour>
      <point x="359" y="385" type="curve" smooth="yes"/>
      <point x="361" y="413"/>
      <point x="365" y="439"/>
      <point x="396" y="439" type="curve" smooth="yes"/>
      <point x="415" y="439"/>
      <point x="424" y="434"/>
      <point x="434" y="414" type="curve" smooth="yes"/>
      <point x="438" y="406"/>
      <point x="444" y="393"/>
      <point x="460" y="393" type="curve" name="hr01" smooth="yes"/>
      <point x="556" y="393" type="line" smooth="yes"/>
      <point x="569" y="393"/>
      <point x="579" y="402"/>
      <point x="578" y="415" type="curve" smooth="yes"/>
      <point x="575" y="472"/>
      <point x="521" y="544"/>
      <point x="396" y="544" type="curve" smooth="yes"/>
      <point x="290" y="544"/>
      <point x="226" y="484"/>
      <point x="221" y="390" type="curve" smooth="yes"/>
      <point x="220" y="380"/>
      <point x="220" y="322"/>
      <point x="221" y="312" type="curve" smooth="yes"/>
      <point x="226" y="218"/>
      <point x="290" y="158"/>
      <point x="396" y="158" type="curve" smooth="yes"/>
      <point x="521" y="158"/>
      <point x="575" y="230"/>
      <point x="578" y="287" type="curve" smooth="yes"/>
      <point x="579" y="300"/>
      <point x="569" y="309"/>
      <point x="556" y="309" type="curve" smooth="yes"/>
      <point x="460" y="309" type="line" smooth="yes"/>
      <point x="444" y="309"/>
      <point x="438" y="296"/>
      <point x="434" y="288" type="curve" smooth="yes"/>
      <point x="424" y="268"/>
      <point x="415" y="263"/>
      <point x="396" y="263" type="curve" name="hr02" smooth="yes"/>
      <point x="365" y="263"/>
      <point x="361" y="289"/>
      <point x="359" y="317" type="curve" smooth="yes"/>
      <point x="358" y="327"/>
      <point x="358" y="375"/>
    </contour>
    <contour>
      <point x="136" y="350" type="curve" smooth="yes"/>
      <point x="136" y="496"/>
      <point x="250" y="615"/>
      <point x="396" y="615" type="curve" smooth="yes"/>
      <point x="542" y="615"/>
      <point x="656" y="496"/>
      <point x="656" y="350" type="curve" smooth="yes"/>
      <point x="656" y="204"/>
      <point x="542" y="85"/>
      <point x="396" y="85" type="curve" smooth="yes"/>
      <point x="250" y="85"/>
      <point x="136" y="204"/>
    </contour>
  </outline>
</glyph>
<glyph name="degree" format="1">
  <advance width="430"/>
  <unicode hex="00B0"/>
  <outline>
    <contour>
      <point x="139" y="519" type="curve" name="hr00" smooth="yes"/>
      <point x="139" y="564"/>
      <point x="170" y="595"/>
      <point x="215" y="595" type="curve" smooth="yes"/>
      <point x="260" y="595"/>
      <point x="291" y="564"/>
      <point x="291" y="519" type="curve" smooth="yes"/>
      <point x="291" y="474"/>
      <point x="260" y="443"/>
      <point x="215" y="443" type="curve" smooth="yes"/>
      <point x="170" y="443"/>
      <point x="139" y="474"/>
    </contour>
    <contour>
      <point x="19" y="519" type="curve" smooth="yes"/>
      <point x="19" y="411"/>
      <point x="107" y="328"/>
      <point x="215" y="328" type="curve" smooth="yes"/>
      <point x="323" y="328"/>
      <point x="411" y="411"/>
      <point x="411" y="519" type="curve" smooth="yes"/>
      <point x="411" y="627"/>
      <point x="323" y="710"/>
      <point x="215" y="710" type="curve" smooth="yes"/>
      <point x="107" y="710"/>
      <point x="19" y="627"/>
    </contour>
  </outline>
</glyph>
<glyph name="plusminus" format="1">
  <advance width="576"/>
  <unicode hex="00B1"/>
  <outline>
    <contour>
      <point x="76" y="163" type="line" name="hr00" smooth="yes"/>
      <point x="61" y="163"/>
      <point x="49" y="151"/>
      <point x="49" y="136" type="curve" smooth="yes"/>
      <point x="49" y="27" type="line" smooth="yes"/>
      <point x="49" y="12"/>
      <point x="61" y="0"/>
      <point x="76" y="0" type="curve" smooth="yes"/>
      <point x="500" y="0" type="line" smooth="yes"/>
      <point x="515" y="0"/>
      <point x="527" y="12"/>
      <point x="527" y="27" type="curve" smooth="yes"/>
      <point x="527" y="136" type="line" smooth="yes"/>
      <point x="527" y="151"/>
      <point x="515" y="163"/>
      <point x="500" y="163" type="curve" smooth="yes"/>
    </contour>
    <contour>
      <point x="201" y="213" type="line" smooth="yes"/>
      <point x="201" y="198"/>
      <point x="213" y="186"/>
      <point x="228" y="186" type="curve" smooth="yes"/>
      <point x="350" y="186" type="line" smooth="yes"/>
      <point x="365" y="186"/>
      <point x="377" y="198"/>
      <point x="377" y="213" type="curve" smooth="yes"/>
      <point x="377" y="354" type="line"/>
      <point x="510" y="354" type="line" smooth="yes"/>
      <point x="525" y="354"/>
      <point x="537" y="366"/>
      <point x="537" y="381" type="curve" smooth="yes"/>
      <point x="537" y="490" type="line" smooth="yes"/>
      <point x="537" y="505"/>
      <point x="525" y="517"/>
      <point x="510" y="517" type="curve" smooth="yes"/>
      <point x="377" y="517" type="line"/>
      <point x="377" y="653" type="line" smooth="yes"/>
      <point x="377" y="668"/>
      <point x="365" y="680"/>
      <point x="350" y="680" type="curve" smooth="yes"/>
      <point x="228" y="680" type="line" smooth="yes"/>
      <point x="213" y="680"/>
      <point x="201" y="668"/>
      <point x="201" y="653" type="curve" smooth="yes"/>
      <point x="201" y="517" type="line"/>
      <point x="66" y="517" type="line" smooth="yes"/>
      <point x="51" y="517"/>
      <point x="39" y="505"/>
      <point x="39" y="490" type="curve" smooth="yes"/>
      <point x="39" y="381" type="line" smooth="yes"/>
      <point x="39" y="366"/>
      <point x="51" y="354"/>
      <point x="66" y="354" type="curve" smooth="yes"/>
      <point x="201" y="354" type="line"/>
    </contour>
  </outline>
</glyph>
<glyph name="guillemotright" format="1">
  <advance width="632"/>
  <unicode hex="00BB"/>
  <outline>
    <contour>
      <point x="431" y="329" type="line" name="hr00"/>
      <point x="362" y="398" type="line" smooth="yes"/>
      <point x="349" y="411"/>
      <point x="344" y="420"/>
      <point x="344" y="443" type="curve" smooth="yes"/>
      <point x="344" y="584" type="line" smooth="yes"/>
      <point x="344" y="596"/>
      <point x="354" y="606"/>
      <point x="366" y="606" type="curve" smooth="yes"/>
      <point x="367" y="606"/>
      <point x="374" y="606"/>
      <point x="380" y="601" type="curve" smooth="yes"/>
      <point x="597" y="390" type="line" smooth="yes"/>
      <point x="605" y="383"/>
      <point x="611" y="374"/>
      <point x="611" y="362" type="curve" smooth="yes"/>
      <point x="611" y="296" type="line" smooth="yes"/>
      <point x="611" y="284"/>
      <point x="605" y="275"/>
      <point x="597" y="268" type="curve" smooth="yes"/>
      <point x="380" y="57" type="line" smooth="yes"/>
      <point x="374" y="52"/>
      <point x="367" y="52"/>
      <point x="366" y="52" type="curve" smooth="yes"/>
      <point x="354" y="52"/>
      <point x="344" y="62"/>
      <point x="344" y="74" type="curve" smooth="yes"/>
      <point x="344" y="215" type="line" smooth="yes"/>
      <point x="344" y="238"/>
      <point x="349" y="247"/>
      <point x="362" y="260" type="curve" smooth="yes"/>
    </contour>
    <contour>
      <point x="141" y="329" type="line"/>
      <point x="72" y="398" type="line" smooth="yes"/>
      <point x="59" y="411"/>
      <point x="54" y="420"/>
      <point x="54" y="443" type="curve" smooth="yes"/>
      <point x="54" y="584" type="line" smooth="yes"/>
      <point x="54" y="596"/>
      <point x="64" y="606"/>
      <point x="76" y="606" type="curve" smooth="yes"/>
      <point x="77" y="606"/>
      <point x="84" y="606"/>
      <point x="90" y="601" type="curve" smooth="yes"/>
      <point x="307" y="390" type="line" smooth="yes"/>
      <point x="315" y="383"/>
      <point x="321" y="374"/>
      <point x="321" y="362" type="curve" smooth="yes"/>
      <point x="321" y="296" type="line" smooth="yes"/>
      <point x="321" y="284"/>
      <point x="315" y="275"/>
      <point x="307" y="268" type="curve" smooth="yes"/>
      <point x="90" y="57" type="line" smooth="yes"/>
      <point x="84" y="52"/>
      <point x="77" y="52"/>
      <point x="76" y="52" type="curve" smooth="yes"/>
      <point x="64" y="52"/>
      <point x="54" y="62"/>
      <point x="54" y="74" type="curve" smooth="yes"/>
      <point x="54" y="215" type="line" smooth="yes"/>
      <point x="54" y="238"/>
      <point x="59" y="247"/>
      <point x="72" y="260" type="curve" smooth="yes"/>
    </contour>
  </outline>
</glyph>
<glyph name="Eth" format="1">
  <advance width="766"/>
  <unicode hex="00D0"/>
  <outline>
    <contour>
      <point x="41" y="429" type="line" name="hr00"/>
      <point x="26" y="429"/>
      <point x="14" y="417"/>
      <point x="14" y="402" type="curve" smooth="yes"/>
      <point x="14" y="301" type="line" smooth="yes"/>
      <point x="14" y="286"/>
      <point x="26" y="274"/>
      <point x="41" y="274" type="curve" smooth="yes"/>
      <point x="79" y="274" type="line"/>
      <point x="79" y="27" type="line" smooth="yes"/>
      <point x="79" y="12"/>
      <point x="91" y="0"/>
      <point x="106" y="0" type="curve" smooth="yes"/>
      <point x="395" y="0" type="line" smooth="yes"/>
      <point x="586" y="0"/>
      <point x="729" y="87"/>
      <point x="729" y="276" type="curve" smooth="yes"/>
      <point x="729" y="425" type="line" smooth="yes"/>
      <point x="729" y="604"/>
      <point x="581" y="700"/>
      <point x="394" y="700" type="curve" smooth="yes"/>
      <point x="106" y="700" type="line" smooth="yes"/>
      <point x="91" y="700"/>
      <point x="79" y="688"/>
      <point x="79" y="673" type="curve" smooth="yes"/>
      <point x="79" y="429" type="line"/>
    </contour>
    <contour>
      <point x="329" y="505" type="line"/>
      <point x="394" y="505" type="line" smooth="yes"/>
      <point x="439" y="505"/>
      <point x="469" y="481"/>
      <point x="469" y="425" type="curve" smooth="yes"/>
      <point x="469" y="276" type="line" smooth="yes"/>
      <point x="469" y="220"/>
      <point x="438" y="195"/>
      <point x="394" y="195" type="curve" smooth="yes"/>
      <point x="329" y="195" type="line"/>
      <point x="329" y="274" type="line"/>
      <point x="385" y="274" type="line" smooth="yes"/>
      <point x="400" y="274"/>
      <point x="412" y="286"/>
      <point x="412" y="301" type="curve" smooth="yes"/>
      <point x="412" y="402" type="line" smooth="yes"/>
      <point x="412" y="417"/>
      <point x="400" y="429"/>
      <point x="385" y="429" type="curve" smooth="yes"/>
      <point x="329" y="429" type="line"/>
    </contour>
  </outline>
</glyph>
<glyph name="Thorn" format="1">
  <advance width="705"/>
  <unicode hex="00DE"/>
  <outline>
    <contour>
      <point x="82" y="700" type="line" name="hr00"/>
      <point x="67" y="700"/>
      <point x="55" y="688"/>
      <point x="55" y="673" type="curve" smooth="yes"/>
      <point x="55" y="27" type="line" smooth="yes"/>
      <point x="55" y="12"/>
      <point x="67" y="0"/>
      <point x="82" y="0" type="curve" smooth="yes"/>
      <point x="288" y="0" type="line" smooth="yes"/>
      <point x="303" y="0"/>
      <point x="315" y="12"/>
      <point x="315" y="27" type="curve" smooth="yes"/>
      <point x="315" y="119" type="line"/>
      <point x="380" y="119" type="line" smooth="yes"/>
      <point x="566" y="119"/>
      <point x="686" y="190"/>
      <point x="686" y="356" type="curve" smooth="yes"/>
      <point x="686" y="522"/>
      <point x="566" y="601"/>
      <point x="380" y="601" type="curve"/>
      <point x="315" y="601" type="line"/>
      <point x="315" y="673" type="line" smooth="yes"/>
      <point x="315" y="688"/>
      <point x="303" y="700"/>
      <point x="288" y="700" type="curve" smooth="yes"/>
    </contour>
    <contour>
      <point x="310" y="415" type="line"/>
      <point x="380" y="415" type="line" smooth="yes"/>
      <point x="416" y="415"/>
      <point x="426" y="383"/>
      <point x="426" y="358" type="curve" smooth="yes"/>
      <point x="426" y="319"/>
      <point x="401" y="304"/>
      <point x="380" y="304" type="curve" smooth="yes"/>
      <point x="310" y="304" type="line"/>
    </contour>
  </outline>
</glyph>
<glyph name="divide" format="1">
  <advance width="517"/>
  <unicode hex="00F7"/>
  <outline>
    <contour>
      <point x="196" y="576" type="line" name="hr00" smooth="yes"/>
      <point x="181" y="576"/>
      <point x="169" y="564"/>
      <point x="169" y="549" type="curve" smooth="yes"/>
      <point x="169" y="435" type="line" smooth="yes"/>
      <point x="169" y="420"/>
      <point x="181" y="408"/>
      <point x="196" y="408" type="curve" smooth="yes"/>
      <point x="320" y="408" type="line" smooth="yes"/>
      <point x="335" y="408"/>
      <point x="347" y="420"/>
      <point x="347" y="435" type="curve" smooth="yes"/>
      <point x="347" y="549" type="line" smooth="yes"/>
      <point x="347" y="564"/>
      <point x="335" y="576"/>
      <point x="320" y="576" type="curve" smooth="yes"/>
    </contour>
    <contour>
      <point x="196" y="192" type="line" smooth="yes"/>
      <point x="181" y="192"/>
      <point x="169" y="180"/>
      <point x="169" y="165" type="curve" smooth="yes"/>
      <point x="169" y="51" type="line" smooth="yes"/>
      <point x="169" y="36"/>
      <point x="181" y="24"/>
      <point x="196" y="24" type="curve" smooth="yes"/>
      <point x="320" y="24" type="line" smooth="yes"/>
      <point x="335" y="24"/>
      <point x="347" y="36"/>
      <point x="347" y="51" type="curve" smooth="yes"/>
      <point x="347" y="165" type="line" smooth="yes"/>
      <point x="347" y="180"/>
      <point x="335" y="192"/>
      <point x="320" y="192" type="curve" smooth="yes"/>
    </contour>
    <contour>
      <point x="56" y="385" type="line" smooth="yes"/>
      <point x="41" y="385"/>
      <point x="29" y="373"/>
      <point x="29" y="358" type="curve" smooth="yes"/>
      <point x="29" y="242" type="line" smooth="yes"/>
      <point x="29" y="227"/>
      <point x="41" y="215"/>
      <point x="56" y="215" type="curve" smooth="yes"/>
      <point x="461" y="215" type="line" smooth="yes"/>
      <point x="476" y="215"/>
      <point x="488" y="227"/>
      <point x="488" y="242" type="curve" smooth="yes"/>
      <point x="488" y="358" type="line" smooth="yes"/>
      <point x="488" y="373"/>
      <point x="476" y="385"/>
      <point x="461" y="385" type="curve" smooth="yes"/>
    </contour>
  </outline>
</glyph>
<glyph name="aogonek" format="1">
  <advance width="622"/>
  <unicode hex="0105"/>
  <outline>
    <contour>
      <point x="17" y="149" type="curve" smooth="yes"/>
      <point x="17" y="59"/>
      <point x="96" y="-10"/>
      <point x="211" y="-10" type="curve" smooth="yes"/>
      <point x="273" y="-10"/>
      <point x="324" y="15"/>
      <point x="353" y="55" type="curve"/>
      <point x="353" y="27" type="line"/>
      <point x="353" y="14"/>
      <point x="361" y="3"/>
      <point x="373" y="0" type="curve" name="hr01"/>
      <point x="370" y="-14"/>
      <point x="369" y="-33"/>
      <point x="369" y="-49" type="curve" smooth="yes"/>
      <point x="369" y="-144"/>
      <point x="420" y="-220"/>
      <point x="541" y="-220" type="curve"/>
      <point x="555" y="-220" type="line"/>
      <point x="570" y="-220"/>
      <point x="582" y="-208"/>
      <point x="582" y="-193" type="curve"/>
      <point x="582" y="-125" type="line"/>
      <point x="582" y="-110"/>
      <point x="570" y="-98"/>
      <point x="555" y="-98" type="curve"/>
      <point x="545" y="-98" type="line"/>
      <point x="506" y="-98"/>
      <point x="495" y="-70"/>
      <point x="495" y="-49" type="curve" name="hr02" smooth="yes"/>
      <point x="495" y="-29"/>
      <point x="505" y="-2"/>
      <point x="539" y="0" type="curve"/>
      <point x="555" y="0" type="line"/>
      <point x="570" y="0"/>
      <point x="582" y="12"/>
      <point x="582" y="27" type="curve" name="hr03"/>
      <point x="582" y="314" type="line"/>
      <point x="582" y="451"/>
      <point x="495" y="530"/>
      <point x="314" y="530" type="curve" smooth="yes"/>
      <point x="127" y="530"/>
      <point x="54" y="431"/>
      <point x="51" y="380" type="curve" smooth="yes"/>
      <point x="50" y="367"/>
      <point x="60" y="358"/>
      <point x="73" y="358" type="curve"/>
      <point x="243" y="358" type="line"/>
      <point x="275" y="358"/>
      <point x="278" y="390"/>
      <point x="312" y="390" type="curve" name="hr04" smooth="yes"/>
      <point x="340" y="390"/>
      <point x="342" y="375"/>
      <point x="342" y="339" type="curve"/>
      <point x="236" y="322" type="line"/>
      <point x="103" y="299"/>
      <point x="17" y="246"/>
    </contour>
    <contour>
      <point x="280" y="138" type="curve" smooth="yes"/>
      <point x="255" y="138"/>
      <point x="242" y="151"/>
      <point x="242" y="166" type="curve" smooth="yes"/>
      <point x="242" y="180"/>
      <point x="251" y="195"/>
      <point x="286" y="203" type="curve"/>
      <point x="345" y="216" type="line"/>
      <point x="345" y="162"/>
      <point x="319" y="138"/>
    </contour>
  </outline>
</glyph>
<glyph name="dcroat" format="1">
  <advance width="662"/>
  <unicode hex="0111"/>
  <outline>
    <contour>
      <point x="244" y="530" type="curve" smooth="yes"/>
      <point x="128" y="530"/>
      <point x="38" y="457"/>
      <point x="32" y="300" type="curve" smooth="yes"/>
      <point x="31" y="270"/>
      <point x="31" y="251"/>
      <point x="32" y="221" type="curve" smooth="yes"/>
      <point x="39" y="54"/>
      <point x="128" y="-10"/>
      <point x="244" y="-10" type="curve" smooth="yes"/>
      <point x="313" y="-10"/>
      <point x="362" y="18"/>
      <point x="392" y="57" type="curve"/>
      <point x="392" y="27" type="line" smooth="yes"/>
      <point x="392" y="12"/>
      <point x="404" y="0"/>
      <point x="419" y="0" type="curve" name="hr01" smooth="yes"/>
      <point x="589" y="0" type="line" smooth="yes"/>
      <point x="604" y="0"/>
      <point x="616" y="12"/>
      <point x="616" y="27" type="curve" smooth="yes"/>
      <point x="616" y="548" type="line"/>
      <point x="646" y="548" type="line" smooth="yes"/>
      <point x="661" y="548"/>
      <point x="673" y="560"/>
      <point x="673" y="575" type="curve" smooth="yes"/>
      <point x="673" y="626" type="line" smooth="yes"/>
      <point x="673" y="641"/>
      <point x="661" y="653"/>
      <point x="646" y="653" type="curve" smooth="yes"/>
      <point x="616" y="653" type="line"/>
      <point x="616" y="683" type="line" smooth="yes"/>
      <point x="616" y="698"/>
      <point x="604" y="710"/>
      <point x="589" y="710" type="curve" smooth="yes"/>
      <point x="404" y="710" type="line" smooth="yes"/>
      <point x="389" y="710"/>
      <point x="377" y="698"/>
      <point x="377" y="683" type="curve" smooth="yes"/>
      <point x="377" y="653" type="line"/>
      <point x="347" y="653" type="line" smooth="yes"/>
      <point x="332" y="653"/>
      <point x="320" y="641"/>
      <point x="320" y="626" type="curve" smooth="yes"/>
      <point x="320" y="575" type="line" smooth="yes"/>
      <point x="320" y="560"/>
      <point x="332" y="548"/>
      <point x="347" y="548" type="curve" smooth="yes"/>
      <point x="377" y="548" type="line"/>
      <point x="377" y="483" type="line"/>
      <point x="345" y="512"/>
      <point x="300" y="530"/>
    </contour>
    <contour>
      <point x="277" y="293" type="curve" smooth="yes"/>
      <point x="281" y="329"/>
      <point x="290" y="351"/>
      <point x="327" y="351" type="curve" smooth="yes"/>
      <point x="361" y="351"/>
      <point x="375" y="333"/>
      <point x="377" y="301" type="curve" smooth="yes"/>
      <point x="379" y="271"/>
      <point x="379" y="257"/>
      <point x="377" y="227" type="curve" smooth="yes"/>
      <point x="375" y="191"/>
      <point x="364" y="169"/>
      <point x="327" y="169" type="curve" name="hr02" smooth="yes"/>
      <point x="290" y="169"/>
      <point x="281" y="191"/>
      <point x="277" y="227" type="curve" smooth="yes"/>
      <point x="275" y="247"/>
      <point x="275" y="273"/>
    </contour>
  </outline>
</glyph>
<glyph name="Hbar" format="1">
  <advance width="772"/>
  <unicode hex="0126"/>
  <outline>
    <contour>
      <point x="494" y="700" type="line" name="hr00"/>
      <point x="479" y="700"/>
      <point x="467" y="688"/>
      <point x="467" y="673" type="curve" smooth="yes"/>
      <point x="467" y="644" type="line"/>
      <point x="305" y="644" type="line"/>
      <point x="305" y="673" type="line" smooth="yes"/>
      <point x="305" y="688"/>
      <point x="293" y="700"/>
      <point x="278" y="700" type="curve" smooth="yes"/>
      <point x="82" y="700" type="line" smooth="yes"/>
      <point x="67" y="700"/>
      <point x="55" y="688"/>
      <point x="55" y="673" type="curve" smooth="yes"/>
      <point x="55" y="27" type="line" smooth="yes"/>
      <point x="55" y="11"/>
      <point x="67" y="0"/>
      <point x="82" y="0" type="curve" smooth="yes"/>
      <point x="278" y="0" type="line" smooth="yes"/>
      <point x="293" y="0"/>
      <point x="305" y="12"/>
      <point x="305" y="27" type="curve" smooth="yes"/>
      <point x="305" y="243" type="line"/>
      <point x="467" y="243" type="line"/>
      <point x="467" y="27" type="line" smooth="yes"/>
      <point x="467" y="12"/>
      <point x="479" y="0"/>
      <point x="494" y="0" type="curve" smooth="yes"/>
      <point x="690" y="0" type="line" smooth="yes"/>
      <point x="705" y="0"/>
      <point x="717" y="12"/>
      <point x="717" y="27" type="curve" smooth="yes"/>
      <point x="717" y="673" type="line" smooth="yes"/>
      <point x="717" y="688"/>
      <point x="705" y="700"/>
      <point x="690" y="700" type="curve" smooth="yes"/>
    </contour>
    <contour>
      <point x="305" y="463" type="line"/>
      <point x="305" y="519" type="line"/>
      <point x="467" y="519" type="line"/>
      <point x="467" y="463" type="line"/>
    </contour>
  </outline>
</glyph>
<glyph name="florin" format="1">
  <advance width="522"/>
  <unicode hex="0192"/>
  <outline>
    <contour>
      <point x="-10" y="-198" type="line" name="hr00"/>
      <point x="-10" y="-213"/>
      <point x="2" y="-225"/>
      <point x="17" y="-225" type="curve" smooth="yes"/>
      <point x="56" y="-225" type="line" smooth="yes"/>
      <point x="248" y="-225"/>
      <point x="352" y="-142"/>
      <point x="352" y="48" type="curve" smooth="yes"/>
      <point x="352" y="345" type="line"/>
      <point x="465" y="345" type="line" smooth="yes"/>
      <point x="480" y="345"/>
      <point x="492" y="357"/>
      <point x="492" y="372" type="curve" smooth="yes"/>
      <point x="492" y="493" type="line" smooth="yes"/>
      <point x="492" y="508"/>
      <point x="480" y="520"/>
      <point x="465" y="520" type="curve" smooth="yes"/>
      <point x="352" y="520" type="line"/>
      <point x="352" y="532" type="line" smooth="yes"/>
      <point x="352" y="553"/>
      <point x="365" y="565"/>
      <point x="395" y="565" type="curve" smooth="yes"/>
      <point x="476" y="565" type="line" smooth="yes"/>
      <point x="491" y="565"/>
      <point x="503" y="577"/>
      <point x="503" y="592" type="curve" smooth="yes"/>
      <point x="503" y="713" type="line" smooth="yes"/>
      <point x="503" y="728"/>
      <point x="491" y="740"/>
      <point x="476" y="740" type="curve" smooth="yes"/>
      <point x="383" y="740" type="line" smooth="yes"/>
      <point x="238" y="740"/>
      <point x="123" y="701"/>
      <point x="123" y="537" type="curve" smooth="yes"/>
      <point x="123" y="520" type="line"/>
      <point x="54" y="520" type="line" smooth="yes"/>
      <point x="39" y="520"/>
      <point x="27" y="508"/>
      <point x="27" y="493" type="curve" smooth="yes"/>
      <point x="27" y="372" type="line" smooth="yes"/>
      <point x="27" y="357"/>
      <point x="39" y="345"/>
      <point x="54" y="345" type="curve" smooth="yes"/>
      <point x="123" y="345" type="line"/>
      <point x="123" y="59" type="line" smooth="yes"/>
      <point x="123" y="-2"/>
      <point x="99" y="-22"/>
      <point x="56" y="-22" type="curve" smooth="yes"/>
      <point x="17" y="-22" type="line" smooth="yes"/>
      <point x="2" y="-22"/>
      <point x="-10" y="-34"/>
      <point x="-10" y="-49" type="curve" smooth="yes"/>
    </contour>
  </outline>
</glyph>
<glyph name="breve" format="1">
  <advance width="445"/>
  <unicode hex="02D8"/>
  <outline>
    <contour>
      <point x="262" y="746" type="curve" smooth="yes"/>
      <point x="262" y="716"/>
      <point x="252" y="691"/>
      <point x="222" y="691" type="curve" smooth="yes"/>
      <point x="192" y="691"/>
      <point x="182" y="716"/>
      <point x="182" y="746" type="curve" smooth="yes"/>
      <point x="182" y="756"/>
      <point x="175" y="765"/>
      <point x="163" y="765" type="curve" name="hr01" smooth="yes"/>
      <point x="69" y="765" type="line" smooth="yes"/>
      <point x="57" y="765"/>
      <point x="50" y="756"/>
      <point x="50" y="746" type="curve" smooth="yes"/>
      <point x="50" y="656"/>
      <point x="112" y="590"/>
      <point x="222" y="590" type="curve" smooth="yes"/>
      <point x="332" y="590"/>
      <point x="394" y="656"/>
      <point x="394" y="746" type="curve" smooth="yes"/>
      <point x="394" y="756"/>
      <point x="387" y="765"/>
      <point x="375" y="765" type="curve" smooth="yes"/>
      <point x="281" y="765" type="line" smooth="yes"/>
      <point x="269" y="765"/>
      <point x="262" y="756"/>
    </contour>
  </outline>
</glyph>
<glyph name="ring" format="1">
  <advance width="300"/>
  <unicode hex="02DA"/>
  <outline>
    <contour>
      <point x="120" y="685" type="curve" name="hr00" smooth="yes"/>
      <point x="120" y="702"/>
      <point x="133" y="715"/>
      <point x="150" y="715" type="curve" smooth="yes"/>
      <point x="167" y="715"/>
      <point x="180" y="702"/>
      <point x="180" y="685" type="curve" smooth="yes"/>
      <point x="180" y="668"/>
      <point x="167" y="655"/>
      <point x="150" y="655" type="curve" smooth="yes"/>
      <point x="133" y="655"/>
      <point x="120" y="668"/>
    </contour>
    <contour>
      <point x="50" y="685" type="curve" smooth="yes"/>
      <point x="50" y="630"/>
      <point x="95" y="590"/>
      <point x="150" y="590" type="curve" smooth="yes"/>
      <point x="205" y="590"/>
      <point x="250" y="630"/>
      <point x="250" y="685" type="curve" smooth="yes"/>
      <point x="250" y="740"/>
      <point x="205" y="780"/>
      <point x="150" y="780" type="curve" smooth="yes"/>
      <point x="95" y="780"/>
      <point x="50" y="740"/>
    </contour>
  </outline>
</glyph>
<glyph name="afii10018" format="1">
  <advance width="672"/>
  <unicode hex="0411"/>
  <outline>
    <contour>
      <point x="82" y="700" type="line" name="hr00"/>
      <point x="67" y="700"/>
      <point x="55" y="688"/>
      <point x="55" y="673" type="curve" smooth="yes"/>
      <point x="55" y="27" type="line" smooth="yes"/>
      <point x="55" y="12"/>
      <point x="67" y="0"/>
      <point x="82" y="0" type="curve" smooth="yes"/>
      <point x="369" y="0" type="line" smooth="yes"/>
      <point x="550" y="0"/>
      <point x="656" y="87"/>
      <point x="656" y="228" type="curve" smooth="yes"/>
      <point x="656" y="369"/>
      <point x="542" y="447"/>
      <point x="369" y="447" type="curve" smooth="yes"/>
      <point x="305" y="447" type="line"/>
      <point x="305" y="505" type="line"/>
      <point x="561" y="505" type="line" smooth="yes"/>
      <point x="576" y="505"/>
      <point x="588" y="517"/>
      <point x="588" y="532" type="curve" smooth="yes"/>
      <point x="588" y="673" type="line" smooth="yes"/>
      <point x="588" y="688"/>
      <point x="576" y="700"/>
      <point x="561" y="700" type="curve" smooth="yes"/>
    </contour>
    <contour>
      <point x="305" y="280" type="line"/>
      <point x="368" y="280" type="line" smooth="yes"/>
      <point x="398" y="280"/>
      <point x="414" y="252"/>
      <point x="414" y="228" type="curve" smooth="yes"/>
      <point x="414" y="206"/>
      <point x="401" y="172"/>
      <point x="368" y="172" type="curve" smooth="yes"/>
      <point x="305" y="172" type="line"/>
    </contour>
  </outline>
</glyph>
<glyph name="afii10020" format="1">
  <advance width="626"/>
  <unicode hex="0413"/>
  <outline>
    <contour>
      <point x="309" y="495" type="line" name="hr00"/>
      <point x="309" y="27" type="line" smooth="yes"/>
      <point x="309" y="12"/>
      <point x="297" y="0"/>
      <point x="282" y="0" type="curve" smooth="yes"/>
      <point x="82" y="0" type="line" smooth="yes"/>
      <point x="67" y="0"/>
      <point x="55" y="12"/>
      <point x="55" y="27" type="curve" smooth="yes"/>
      <point x="55" y="673" type="line" smooth="yes"/>
      <point x="55" y="688"/>
      <point x="67" y="700"/>
      <point x="82" y="700" type="curve" smooth="yes"/>
      <point x="586" y="700" type="line" smooth="yes"/>
      <point x="601" y="700"/>
      <point x="613" y="688"/>
      <point x="613" y="673" type="curve" smooth="yes"/>
      <point x="613" y="522" type="line" smooth="yes"/>
      <point x="613" y="507"/>
      <point x="601" y="495"/>
      <point x="586" y="495" type="curve" smooth="yes"/>
    </contour>
  </outline>
</glyph>
<glyph name="afii10024" format="1">
  <advance width="985"/>
  <unicode hex="0416"/>
  <outline>
    <contour>
      <point x="808" y="365" type="line" name="hr00"/>
      <point x="958" y="667" type="line" smooth="yes"/>
      <point x="960" y="670"/>
      <point x="961" y="674"/>
      <point x="961" y="678" type="curve" smooth="yes"/>
      <point x="961" y="690"/>
      <point x="951" y="700"/>
      <point x="939" y="700" type="curve" smooth="yes"/>
      <point x="748" y="700" type="line" smooth="yes"/>
      <point x="723" y="700"/>
      <point x="711" y="684"/>
      <point x="708" y="678" type="curve" smooth="yes"/>
      <point x="605" y="445" type="line"/>
      <point x="605" y="673" type="line" smooth="yes"/>
      <point x="605" y="688"/>
      <point x="593" y="700"/>
      <point x="578" y="700" type="curve" smooth="yes"/>
      <point x="407" y="700" type="line" smooth="yes"/>
      <point x="392" y="700"/>
      <point x="380" y="688"/>
      <point x="380" y="673" type="curve" smooth="yes"/>
      <point x="380" y="445" type="line"/>
      <point x="277" y="678" type="line" smooth="yes"/>
      <point x="274" y="684"/>
      <point x="262" y="700"/>
      <point x="237" y="700" type="curve" smooth="yes"/>
      <point x="46" y="700" type="line" smooth="yes"/>
      <point x="34" y="700"/>
      <point x="24" y="690"/>
      <point x="24" y="678" type="curve" smooth="yes"/>
      <point x="24" y="674"/>
      <point x="25" y="670"/>
      <point x="27" y="667" type="curve" smooth="yes"/>
      <point x="177" y="365" type="line"/>
      <point x="10" y="33" type="line" smooth="yes"/>
      <point x="8" y="30"/>
      <point x="7" y="25"/>
      <point x="7" y="22" type="curve" smooth="yes"/>
      <point x="7" y="10"/>
      <point x="17" y="0"/>
      <point x="29" y="0" type="curve" smooth="yes"/>
      <point x="227" y="0" type="line" smooth="yes"/>
      <point x="254" y="0"/>
      <point x="266" y="19"/>
      <point x="268" y="23" type="curve" smooth="yes"/>
      <point x="380" y="271" type="line"/>
      <point x="380" y="27" type="line" smooth="yes"/>
      <point x="380" y="12"/>
      <point x="392" y="0"/>
      <point x="407" y="0" type="curve" smooth="yes"/>
      <point x="578" y="0" type="line" smooth="yes"/>
      <point x="593" y="0"/>
      <point x="605" y="12"/>
      <point x="605" y="27" type="curve" smooth="yes"/>
      <point x="605" y="271" type="line"/>
      <point x="717" y="23" type="line" smooth="yes"/>
      <point x="719" y="19"/>
      <point x="731" y="0"/>
      <point x="758" y="0" type="curve" smooth="yes"/>
      <point x="956" y="0" type="line" smooth="yes"/>
      <point x="968" y="0"/>
      <point x="978" y="10"/>
      <point x="978" y="22" type="curve" smooth="yes"/>
      <point x="978" y="25"/>
      <point x="977" y="30"/>
      <point x="975" y="33" type="curve" smooth="yes"/>
    </contour>
  </outline>
</glyph>
<glyph name="afii10025" format="1">
  <advance width="704"/>
  <unicode hex="0417"/>
  <outline>
    <contour>
      <point x="406" y="470" type="curve" smooth="yes"/>
      <point x="406" y="445"/>
      <point x="388" y="438"/>
      <point x="341" y="438" type="curve" smooth="yes"/>
      <point x="240" y="438" type="line" smooth="yes"/>
      <point x="225" y="438"/>
      <point x="213" y="424"/>
      <point x="213" y="409" type="curve" smooth="yes"/>
      <point x="213" y="289" type="line" smooth="yes"/>
      <point x="213" y="274"/>
      <point x="225" y="260"/>
      <point x="240" y="260" type="curve" smooth="yes"/>
      <point x="341" y="260" type="line" smooth="yes"/>
      <point x="388" y="260"/>
      <point x="411" y="252"/>
      <point x="411" y="227" type="curve" smooth="yes"/>
      <point x="411" y="203"/>
      <point x="392" y="183"/>
      <point x="342" y="183" type="curve" smooth="yes"/>
      <point x="300" y="183"/>
      <point x="287" y="192"/>
      <point x="276" y="203" type="curve" smooth="yes"/>
      <point x="267" y="212"/>
      <point x="260" y="219"/>
      <point x="242" y="219" type="curve" name="hr01" smooth="yes"/>
      <point x="41" y="219" type="line" smooth="yes"/>
      <point x="29" y="219"/>
      <point x="19" y="209"/>
      <point x="19" y="197" type="curve" smooth="yes"/>
      <point x="19" y="118"/>
      <point x="103" y="-10"/>
      <point x="344" y="-10" type="curve" smooth="yes"/>
      <point x="533" y="-10"/>
      <point x="671" y="86"/>
      <point x="671" y="209" type="curve" smooth="yes"/>
      <point x="671" y="253"/>
      <point x="652" y="313"/>
      <point x="574" y="346" type="curve"/>
      <point x="650" y="384"/>
      <point x="666" y="446"/>
      <point x="666" y="490" type="curve" smooth="yes"/>
      <point x="666" y="613"/>
      <point x="533" y="710"/>
      <point x="344" y="710" type="curve" smooth="yes"/>
      <point x="103" y="710"/>
      <point x="24" y="580"/>
      <point x="24" y="501" type="curve" smooth="yes"/>
      <point x="24" y="489"/>
      <point x="34" y="479"/>
      <point x="46" y="479" type="curve" smooth="yes"/>
      <point x="247" y="479" type="line" smooth="yes"/>
      <point x="265" y="479"/>
      <point x="272" y="486"/>
      <point x="281" y="495" type="curve" smooth="yes"/>
      <point x="292" y="506"/>
      <point x="300" y="515"/>
      <point x="342" y="515" type="curve" name="hr02" smooth="yes"/>
      <point x="392" y="515"/>
      <point x="406" y="494"/>
    </contour>
  </outline>
</glyph>
<glyph name="afii10044" format="1">
  <advance width="806"/>
  <unicode hex="042A"/>
  <outline>
    <contour>
      <point x="480" y="0" type="line" name="hr00" smooth="yes"/>
      <point x="666" y="0"/>
      <point x="786" y="79"/>
      <point x="786" y="245" type="curve" smooth="yes"/>
      <point x="786" y="411"/>
      <point x="666" y="482"/>
      <point x="480" y="482" type="curve" smooth="yes"/>
      <point x="415" y="482" type="line"/>
      <point x="415" y="673" type="line" smooth="yes"/>
      <point x="415" y="688"/>
      <point x="403" y="700"/>
      <point x="388" y="700" type="curve" smooth="yes"/>
      <point x="42" y="700" type="line" smooth="yes"/>
      <point x="27" y="700"/>
      <point x="15" y="688"/>
      <point x="15" y="673" type="curve" smooth="yes"/>
      <point x="15" y="532" type="line" smooth="yes"/>
      <point x="15" y="517"/>
      <point x="27" y="505"/>
      <point x="42" y="505" type="curve" smooth="yes"/>
      <point x="155" y="505" type="line"/>
      <point x="155" y="27" type="line" smooth="yes"/>
      <point x="155" y="12"/>
      <point x="167" y="0"/>
      <point x="182" y="0" type="curve" smooth="yes"/>
    </contour>
    <contour>
      <point x="410" y="297" type="line"/>
      <point x="480" y="297" type="line" smooth="yes"/>
      <point x="501" y="297"/>
      <point x="526" y="282"/>
      <point x="526" y="243" type="curve" smooth="yes"/>
      <point x="526" y="218"/>
      <point x="516" y="186"/>
      <point x="480" y="186" type="curve" smooth="yes"/>
      <point x="410" y="186" type="line"/>
    </contour>
  </outline>
</glyph>
<glyph name="afii10086" format="1">
  <advance width="964"/>
  <unicode hex="0444"/>
  <outline>
    <contour>
      <point x="239" y="-10" type="curve" name="hr00" smooth="yes"/>
      <point x="295" y="-10"/>
      <point x="332" y="7"/>
      <point x="362" y="50" type="curve"/>
      <point x="362" y="-163" type="line" smooth="yes"/>
      <point x="362" y="-178"/>
      <point x="374" y="-190"/>
      <point x="389" y="-190" type="curve" smooth="yes"/>
      <point x="575" y="-190" type="line" smooth="yes"/>
      <point x="590" y="-190"/>
      <point x="602" y="-178"/>
      <point x="602" y="-163" type="curve" smooth="yes"/>
      <point x="602" y="50" type="line"/>
      <point x="632" y="7"/>
      <point x="669" y="-10"/>
      <point x="725" y="-10" type="curve" smooth="yes"/>
      <point x="841" y="-10"/>
      <point x="926" y="63"/>
      <point x="932" y="220" type="curve" smooth="yes"/>
      <point x="933" y="250"/>
      <point x="933" y="269"/>
      <point x="932" y="299" type="curve" smooth="yes"/>
      <point x="925" y="466"/>
      <point x="841" y="530"/>
      <point x="725" y="530" type="curve" smooth="yes"/>
      <point x="656" y="530"/>
      <point x="632" y="512"/>
      <point x="602" y="473" type="curve"/>
      <point x="602" y="683" type="line" smooth="yes"/>
      <point x="602" y="698"/>
      <point x="590" y="710"/>
      <point x="575" y="710" type="curve" smooth="yes"/>
      <point x="389" y="710" type="line" smooth="yes"/>
      <point x="374" y="710"/>
      <point x="362" y="698"/>
      <point x="362" y="683" type="curve" smooth="yes"/>
      <point x="362" y="473" type="line"/>
      <point x="332" y="512"/>
      <point x="308" y="530"/>
      <point x="239" y="530" type="curve" smooth="yes"/>
      <point x="123" y="530"/>
      <point x="39" y="466"/>
      <point x="32" y="299" type="curve" smooth="yes"/>
      <point x="31" y="269"/>
      <point x="31" y="250"/>
      <point x="32" y="220" type="curve" smooth="yes"/>
      <point x="38" y="63"/>
      <point x="123" y="-10"/>
    </contour>
    <contour>
      <point x="277" y="227" type="curve" smooth="yes"/>
      <point x="275" y="247"/>
      <point x="275" y="273"/>
      <point x="277" y="293" type="curve" smooth="yes"/>
      <point x="281" y="329"/>
      <point x="290" y="351"/>
      <point x="322" y="351" type="curve" smooth="yes"/>
      <point x="354" y="351"/>
      <point x="360" y="329"/>
      <point x="362" y="293" type="curve" smooth="yes"/>
      <point x="364" y="263"/>
      <point x="364" y="249"/>
      <point x="362" y="219" type="curve" smooth="yes"/>
      <point x="360" y="187"/>
      <point x="351" y="169"/>
      <point x="322" y="169" type="curve" smooth="yes"/>
      <point x="290" y="169"/>
      <point x="281" y="191"/>
    </contour>
    <contour>
      <point x="687" y="227" type="curve" smooth="yes"/>
      <point x="683" y="191"/>
      <point x="674" y="169"/>
      <point x="642" y="169" type="curve" smooth="yes"/>
      <point x="613" y="169"/>
      <point x="604" y="187"/>
      <point x="602" y="219" type="curve" smooth="yes"/>
      <point x="600" y="249"/>
      <point x="600" y="263"/>
      <point x="602" y="293" type="curve" smooth="yes"/>
      <point x="604" y="329"/>
      <point x="610" y="351"/>
      <point x="642" y="351" type="curve" smooth="yes"/>
      <point x="674" y="351"/>
      <point x="683" y="329"/>
      <point x="687" y="293" type="curve" smooth="yes"/>
      <point x="689" y="273"/>
      <point x="689" y="247"/>
    </contour>
  </outline>
</glyph>
<glyph name="afii10092" format="1">
  <advance width="733"/>
  <unicode hex="044A"/>
  <outline>
    <contour>
      <point x="455" y="0" type="line"/>
      <point x="641" y="0"/>
      <point x="716" y="105"/>
      <point x="716" y="211" type="curve" smooth="yes"/>
      <point x="716" y="337"/>
      <point x="611" y="433"/>
      <point x="455" y="433" type="curve" smooth="yes"/>
      <point x="390" y="433" type="line"/>
      <point x="390" y="493" type="line" smooth="yes"/>
      <point x="390" y="508"/>
      <point x="378" y="520"/>
      <point x="363" y="520" type="curve" name="hr01" smooth="yes"/>
      <point x="42" y="520" type="line" smooth="yes"/>
      <point x="27" y="520"/>
      <point x="15" y="508"/>
      <point x="15" y="493" type="curve" smooth="yes"/>
      <point x="15" y="372" type="line" smooth="yes"/>
      <point x="15" y="357"/>
      <point x="27" y="345"/>
      <point x="42" y="345" type="curve" smooth="yes"/>
      <point x="151" y="345" type="line"/>
      <point x="151" y="27" type="line" smooth="yes"/>
      <point x="151" y="12"/>
      <point x="163" y="0"/>
      <point x="178" y="0" type="curve" smooth="yes"/>
    </contour>
    <contour>
      <point x="385" y="258" type="line" name="hr02"/>
      <point x="455" y="258" type="line" smooth="yes"/>
      <point x="486" y="258"/>
      <point x="501" y="235"/>
      <point x="501" y="216" type="curve" smooth="yes"/>
      <point x="501" y="197"/>
      <point x="491" y="177"/>
      <point x="455" y="177" type="curve" smooth="yes"/>
      <point x="385" y="177" type="line"/>
    </contour>
  </outline>
</glyph>
<glyph name="afii10095" format="1">
  <advance width="632"/>
  <unicode hex="044D"/>
  <outline>
    <contour>
      <point x="303" y="359" type="curve" smooth="yes"/>
      <point x="283" y="359"/>
      <point x="260" y="348"/>
      <point x="251" y="329" type="curve" smooth="yes"/>
      <point x="245" y="317"/>
      <point x="237" y="309"/>
      <point x="222" y="309" type="curve" smooth="yes"/>
      <point x="47" y="309" type="line" smooth="yes"/>
      <point x="32" y="309"/>
      <point x="20" y="321"/>
      <point x="20" y="336" type="curve" smooth="yes"/>
      <point x="20" y="389"/>
      <point x="90" y="530"/>
      <point x="301" y="530" type="curve" smooth="yes"/>
      <point x="464" y="530"/>
      <point x="605" y="448"/>
      <point x="605" y="260" type="curve" smooth="yes"/>
      <point x="605" y="72"/>
      <point x="466" y="-10"/>
      <point x="303" y="-10" type="curve" smooth="yes"/>
      <point x="82" y="-10"/>
      <point x="20" y="141"/>
      <point x="20" y="184" type="curve" smooth="yes"/>
      <point x="20" y="199"/>
      <point x="32" y="211"/>
      <point x="47" y="211" type="curve" name="hr01" smooth="yes"/>
      <point x="222" y="211" type="line" smooth="yes"/>
      <point x="237" y="211"/>
      <point x="246" y="203"/>
      <point x="251" y="191" type="curve" smooth="yes"/>
      <point x="259" y="172"/>
      <point x="279" y="161"/>
      <point x="303" y="161" type="curve" smooth="yes"/>
      <point x="335" y="161"/>
      <point x="350" y="173"/>
      <point x="356" y="199" type="curve"/>
      <point x="296" y="199" type="line" smooth="yes"/>
      <point x="281" y="199"/>
      <point x="269" y="211"/>
      <point x="269" y="226" type="curve" smooth="yes"/>
      <point x="269" y="297" type="line" smooth="yes"/>
      <point x="269" y="312"/>
      <point x="281" y="324"/>
      <point x="296" y="324" type="curve" smooth="yes"/>
      <point x="355" y="324" type="line"/>
      <point x="348" y="346"/>
      <point x="333" y="359"/>
    </contour>
  </outline>
</glyph>
<glyph name="afii10096" format="1">
  <advance width="967"/>
  <unicode hex="044E"/>
  <outline>
    <contour>
      <point x="646" y="530" type="curve" smooth="yes"/>
      <point x="490" y="530"/>
      <point x="388" y="469"/>
      <point x="362" y="350" type="curve"/>
      <point x="278" y="350" type="line"/>
      <point x="278" y="493" type="line"/>
      <point x="278" y="508"/>
      <point x="266" y="520"/>
      <point x="251" y="520" type="curve" name="hr01"/>
      <point x="72" y="520" type="line"/>
      <point x="57" y="520"/>
      <point x="45" y="508"/>
      <point x="45" y="493" type="curve"/>
      <point x="45" y="27" type="line"/>
      <point x="45" y="12"/>
      <point x="57" y="0"/>
      <point x="72" y="0" type="curve"/>
      <point x="251" y="0" type="line"/>
      <point x="266" y="0"/>
      <point x="278" y="12"/>
      <point x="278" y="27" type="curve"/>
      <point x="278" y="175" type="line"/>
      <point x="360" y="175" type="line"/>
      <point x="383" y="53"/>
      <point x="478" y="-10"/>
      <point x="646" y="-10" type="curve" name="hr02" smooth="yes"/>
      <point x="830" y="-10"/>
      <point x="926" y="66"/>
      <point x="936" y="213" type="curve" smooth="yes"/>
      <point x="938" y="243"/>
      <point x="938" y="277"/>
      <point x="936" y="307" type="curve" smooth="yes"/>
      <point x="926" y="454"/>
      <point x="819" y="530"/>
    </contour>
    <contour>
      <point x="691" y="302" type="curve" smooth="yes"/>
      <point x="692" y="282"/>
      <point x="692" y="238"/>
      <point x="691" y="218" type="curve" smooth="yes"/>
      <point x="688" y="171"/>
      <point x="684" y="150"/>
      <point x="646" y="150" type="curve" smooth="yes"/>
      <point x="608" y="150"/>
      <point x="604" y="171"/>
      <point x="601" y="218" type="curve" smooth="yes"/>
      <point x="600" y="238"/>
      <point x="600" y="282"/>
      <point x="601" y="302" type="curve" smooth="yes"/>
      <point x="604" y="346"/>
      <point x="608" y="370"/>
      <point x="646" y="370" type="curve" smooth="yes"/>
      <point x="684" y="370"/>
      <point x="688" y="346"/>
    </contour>
  </outline>
</glyph>
<glyph name="afii10097" format="1">
  <advance width="651"/>
  <unicode hex="044F"/>
  <outline>
    <contour>
      <point x="311" y="520" type="line" name="hr00" smooth="yes"/>
      <point x="135" y="520"/>
      <point x="45" y="429"/>
      <point x="45" y="312" type="curve" smooth="yes"/>
      <point x="45" y="262"/>
      <point x="67" y="217"/>
      <point x="103" y="183" type="curve"/>
      <point x="20" y="37" type="line" smooth="yes"/>
      <point x="18" y="34"/>
      <point x="16" y="30"/>
      <point x="16" y="24" type="curve" smooth="yes"/>
      <point x="16" y="11"/>
      <point x="27" y="0"/>
      <point x="40" y="0" type="curve" smooth="yes"/>
      <point x="245" y="0" type="line" smooth="yes"/>
      <point x="265" y="0"/>
      <point x="274" y="14"/>
      <point x="276" y="17" type="curve" smooth="yes"/>
      <point x="322" y="108" type="line"/>
      <point x="366" y="108" type="line"/>
      <point x="366" y="27" type="line" smooth="yes"/>
      <point x="366" y="12"/>
      <point x="378" y="0"/>
      <point x="393" y="0" type="curve" smooth="yes"/>
      <point x="579" y="0" type="line" smooth="yes"/>
      <point x="594" y="0"/>
      <point x="606" y="12"/>
      <point x="606" y="27" type="curve" smooth="yes"/>
      <point x="606" y="493" type="line" smooth="yes"/>
      <point x="606" y="508"/>
      <point x="594" y="520"/>
      <point x="579" y="520" type="curve" smooth="yes"/>
    </contour>
    <contour>
      <point x="371" y="283" type="line"/>
      <point x="311" y="283" type="line" smooth="yes"/>
      <point x="280" y="283"/>
      <point x="265" y="293"/>
      <point x="265" y="312" type="curve" smooth="yes"/>
      <point x="265" y="331"/>
      <point x="275" y="344"/>
      <point x="311" y="344" type="curve" smooth="yes"/>
      <point x="371" y="344" type="line"/>
    </contour>
  </outline>
</glyph>
<glyph name="shevahebrew" format="1">
  <advance width="0"/>
  <unicode hex="05B0"/>
  <outline>
    <contour>
      <point x="37" y="-182" type="line" smooth="yes"/>
      <point x="50" y="-182"/>
      <point x="59" y="-173"/>
      <point x="59" y="-160" type="curve" smooth="yes"/>
      <point x="59" y="-97" type="line" smooth="yes"/>
      <point x="59" y="-84"/>
      <point x="50" y="-75"/>
      <point x="37" y="-75" type="curve" smooth="yes"/>
      <point x="-36" y="-75" type="line" smooth="yes"/>
      <point x="-49" y="-75"/>
      <point x="-58" y="-84"/>
      <point x="-58" y="-97" type="curve" smooth="yes"/>
      <point x="-58" y="-160" type="line" smooth="yes"/>
      <point x="-58" y="-173"/>
      <point x="-49" y="-182"/>
      <point x="-36" y="-182" type="curve" smooth="yes"/>
    </contour>
    <contour>
      <point x="37" y="-306" type="line" smooth="yes"/>
      <point x="50" y="-306"/>
      <point x="59" y="-297"/>
      <point x="59" y="-284" type="curve" smooth="yes"/>
      <point x="59" y="-221" type="line" smooth="yes"/>
      <point x="59" y="-208"/>
      <point x="50" y="-199"/>
      <point x="37" y="-199" type="curve" smooth="yes"/>
      <point x="-36" y="-199" type="line" smooth="yes"/>
      <point x="-49" y="-199"/>
      <point x="-58" y="-208"/>
      <point x="-58" y="-221" type="curve" smooth="yes"/>
      <point x="-58" y="-284" type="line" smooth="yes"/>
      <point x="-58" y="-297"/>
      <point x="-49" y="-306"/>
      <point x="-36" y="-306" type="curve" smooth="yes"/>
    </contour>
    <contour>
      <point x="1" y="0" type="move" name="_bottom"/>
    </contour>
  </outline>
</glyph>
<glyph name="tserehebrew" format="1">
  <advance width="0"/>
  <unicode hex="05B5"/>
  <outline>
    <contour>
      <point x="-33" y="-182" type="line" smooth="yes"/>
      <point x="-20" y="-182"/>
      <point x="-11" y="-173"/>
      <point x="-11" y="-160" type="curve" smooth="yes"/>
      <point x="-11" y="-97" type="line" smooth="yes"/>
      <point x="-11" y="-84"/>
      <point x="-20" y="-75"/>
      <point x="-33" y="-75" type="curve" smooth="yes"/>
      <point x="-106" y="-75" type="line" smooth="yes"/>
      <point x="-119" y="-75"/>
      <point x="-128" y="-84"/>
      <point x="-128" y="-97" type="curve" smooth="yes"/>
      <point x="-128" y="-160" type="line" smooth="yes"/>
      <point x="-128" y="-173"/>
      <point x="-119" y="-182"/>
      <point x="-106" y="-182" type="curve" smooth="yes"/>
    </contour>
    <contour>
      <point x="111" y="-182" type="line" smooth="yes"/>
      <point x="124" y="-182"/>
      <point x="133" y="-173"/>
      <point x="133" y="-160" type="curve" smooth="yes"/>
      <point x="133" y="-97" type="line" smooth="yes"/>
      <point x="133" y="-84"/>
      <point x="124" y="-75"/>
      <point x="111" y="-75" type="curve" smooth="yes"/>
      <point x="38" y="-75" type="line" smooth="yes"/>
      <point x="25" y="-75"/>
      <point x="16" y="-84"/>
      <point x="16" y="-97" type="curve" smooth="yes"/>
      <point x="16" y="-160" type="line" smooth="yes"/>
      <point x="16" y="-173"/>
      <point x="25" y="-182"/>
      <point x="38" y="-182" type="curve" smooth="yes"/>
    </contour>
    <contour>
      <point x="2" y="0" type="move" name="_bottom"/>
    </contour>
  </outline>
</glyph>
<glyph name="shindothebrew" format="1">
  <advance width="0"/>
  <unicode hex="05C1"/>
  <outline>
    <contour>
      <point x="-68" y="493" type="line" smooth="yes"/>
      <point x="-55" y="493"/>
      <point x="-46" y="502"/>
      <point x="-46" y="515" type="curve" smooth="yes"/>
      <point x="-46" y="578" type="line" smooth="yes"/>
      <point x="-46" y="591"/>
      <point x="-55" y="600"/>
      <point x="-68" y="600" type="curve" smooth="yes"/>
      <point x="-131" y="600" type="line" smooth="yes"/>
      <point x="-144" y="600"/>
      <point x="-153" y="591"/>
      <point x="-153" y="578" type="curve" smooth="yes"/>
      <point x="-153" y="515" type="line" smooth="yes"/>
      <point x="-153" y="502"/>
      <point x="-144" y="493"/>
      <point x="-131" y="493" type="curve" smooth="yes"/>
    </contour>
    <contour>
      <point x="21" y="415" type="move" name="_topright"/>
    </contour>
  </outline>
</glyph>
<glyph name="qamatsqatanhebrew" format="1">
  <advance width="0"/>
  <unicode hex="05C7"/>
  <outline>
    <contour>
      <point x="106" y="-182" type="line" smooth="yes"/>
      <point x="119" y="-182"/>
      <point x="128" y="-173"/>
      <point x="128" y="-160" type="curve" smooth="yes"/>
      <point x="128" y="-97" type="line" smooth="yes"/>
      <point x="128" y="-84"/>
      <point x="119" y="-75"/>
      <point x="106" y="-75" type="curve" smooth="yes"/>
      <point x="-102" y="-75" type="line" smooth="yes"/>
      <point x="-115" y="-75"/>
      <point x="-124" y="-84"/>
      <point x="-124" y="-97" type="curve" smooth="yes"/>
      <point x="-124" y="-160" type="line" smooth="yes"/>
      <point x="-124" y="-173"/>
      <point x="-115" y="-182"/>
      <point x="-102" y="-182" type="curve" smooth="yes"/>
    </contour>
    <contour>
      <point x="24" y="-261" type="line" smooth="yes"/>
      <point x="37" y="-261"/>
      <point x="46" y="-252"/>
      <point x="46" y="-239" type="curve" smooth="yes"/>
      <point x="46" y="-150" type="line" smooth="yes"/>
      <point x="46" y="-127"/>
      <point x="37" y="-128"/>
      <point x="24" y="-128" type="curve" smooth="yes"/>
      <point x="-23" y="-128" type="line" smooth="yes"/>
      <point x="-36" y="-128"/>
      <point x="-45" y="-127"/>
      <point x="-45" y="-150" type="curve" smooth="yes"/>
      <point x="-45" y="-239" type="line" smooth="yes"/>
      <point x="-45" y="-252"/>
      <point x="-36" y="-261"/>
      <point x="-23" y="-261" type="curve" smooth="yes"/>
    </contour>
    <contour>
      <point x="2" y="0" type="move" name="_bottom"/>
    </contour>
  </outline>
</glyph>
<glyph name="dalethebrew" format="1">
  <advance width="559"/>
  <unicode hex="05D3"/>
  <outline>
    <contour>
      <point x="419" y="0" type="line" smooth="yes"/>
      <point x="432" y="0"/>
      <point x="451" y="9"/>
      <point x="451" y="22" type="curve"/>
      <point x="451" y="272" type="line" smooth="yes"/>
      <point x="451" y="356"/>
      <point x="473" y="423"/>
      <point x="507" y="423" type="curve"/>
      <point x="294" y="423" type="line"/>
      <point x="245" y="423"/>
      <point x="230" y="377"/>
      <point x="230" y="286" type="curve" smooth="yes"/>
      <point x="230" y="22" type="line" smooth="yes"/>
      <point x="230" y="9"/>
      <point x="239" y="0"/>
      <point x="252" y="0" type="curve" smooth="yes"/>
    </contour>
    <contour>
      <point x="509" y="396" type="line" smooth="yes"/>
      <point x="526" y="396"/>
      <point x="536" y="410"/>
      <point x="536" y="423" type="curve" smooth="yes"/>
      <point x="536" y="544" type="line" smooth="yes"/>
      <point x="536" y="559"/>
      <point x="524" y="571"/>
      <point x="509" y="571" type="curve" smooth="yes"/>
      <point x="50" y="571" type="line" smooth="yes"/>
      <point x="35" y="571"/>
      <point x="23" y="559"/>
      <point x="23" y="544" type="curve" smooth="yes"/>
      <point x="23" y="423" type="line" smooth="yes"/>
      <point x="23" y="408"/>
      <point x="35" y="396"/>
      <point x="50" y="396" type="curve" smooth="yes"/>
    </contour>
    <contour>
      <point x="335" y="0" type="move" name="bottom"/>
    </contour>
    <contour>
      <point x="285" y="520" type="move" name="top"/>
    </contour>
    <contour>
      <point x="31" y="0" type="move" name="bottomleft"/>
    </contour>
    <contour>
      <point x="31" y="520" type="move" name="topleft"/>
    </contour>
    <contour>
      <point x="133" y="260" type="move" name="center"/>
    </contour>
  </outline>
</glyph>
<glyph name="vavhebrew" format="1">
  <advance width="327"/>
  <unicode hex="05D5"/>
  <outline>
    <contour>
      <point x="253" y="0" type="line" smooth="yes"/>
      <point x="268" y="0"/>
      <point x="280" y="12"/>
      <point x="280" y="27" type="curve"/>
      <point x="280" y="544" type="line" smooth="yes"/>
      <point x="280" y="559"/>
      <point x="268" y="571"/>
      <point x="253" y="571" type="curve" smooth="yes"/>
      <point x="74" y="571" type="line" smooth="yes"/>
      <point x="59" y="571"/>
      <point x="47" y="559"/>
      <point x="47" y="544" type="curve" smooth="yes"/>
      <point x="47" y="27" type="line" smooth="yes"/>
      <point x="47" y="12"/>
      <point x="59" y="0"/>
      <point x="74" y="0" type="curve" smooth="yes"/>
    </contour>
    <contour>
      <point x="162" y="0" type="move" name="bottom"/>
    </contour>
    <contour>
      <point x="164" y="520" type="move" name="top"/>
    </contour>
    <contour>
      <point x="20" y="0" type="move" name="bottomleft"/>
    </contour>
    <contour>
      <point x="216" y="520" type="move" name="topleft"/>
    </contour>
    <contour>
      <point x="-36" y="260" type="move" name="center"/>
    </contour>
  </outline>
</glyph>
<glyph name="tethebrew" format="1">
  <advance width="665"/>
  <unicode hex="05D8"/>
  <outline>
    <contour>
      <point x="536" y="-10"/>
      <point x="625" y="90"/>
      <point x="633" y="241" type="curve" smooth="yes"/>
      <point x="634" y="261"/>
      <point x="633" y="317"/>
      <point x="633" y="337" type="curve" smooth="yes"/>
      <point x="633" y="491"/>
      <point x="587" y="574"/>
      <point x="423" y="574" type="curve" smooth="yes"/>
      <point x="369" y="574"/>
      <point x="345" y="568"/>
      <point x="332" y="561" type="curve" smooth="yes"/>
      <point x="314" y="551"/>
      <point x="308" y="535"/>
      <point x="308" y="520" type="curve" smooth="yes"/>
      <point x="308" y="407" type="line" smooth="yes"/>
      <point x="308" y="387"/>
      <point x="324" y="377"/>
      <point x="341" y="383" type="curve" smooth="yes"/>
      <point x="349" y="386"/>
      <point x="366" y="390"/>
      <point x="381" y="390" type="curve" smooth="yes"/>
      <point x="408" y="390"/>
      <point x="417" y="351"/>
      <point x="417" y="302" type="curve" smooth="yes"/>
      <point x="417" y="281"/>
      <point x="417" y="268"/>
      <point x="417" y="246" type="curve" smooth="yes"/>
      <point x="417" y="196"/>
      <point x="385" y="175"/>
      <point x="337" y="175" type="curve" smooth="yes"/>
      <point x="288" y="175"/>
      <point x="243" y="191"/>
      <point x="243" y="246" type="curve" smooth="yes"/>
      <point x="243" y="544" type="line" smooth="yes"/>
      <point x="243" y="559"/>
      <point x="231" y="571"/>
      <point x="216" y="571" type="curve" smooth="yes"/>
      <point x="68" y="571" type="line" smooth="yes"/>
      <point x="53" y="571"/>
      <point x="41" y="559"/>
      <point x="41" y="544" type="curve" smooth="yes"/>
      <point x="41" y="241" type="line" smooth="yes"/>
      <point x="41" y="87"/>
      <point x="141" y="-10"/>
      <point x="338" y="-10" type="curve" smooth="yes"/>
    </contour>
    <contour>
      <point x="333" y="0" type="move" name="bottom"/>
    </contour>
    <contour>
      <point x="333" y="520" type="move" name="top"/>
    </contour>
    <contour>
      <point x="20" y="0" type="move" name="bottomleft"/>
    </contour>
    <contour>
      <point x="20" y="520" type="move" name="topleft"/>
    </contour>
    <contour>
      <point x="328" y="260" type="move" name="center"/>
    </contour>
  </outline>
</glyph>
<glyph name="kafhebrew" format="1">
  <advance width="537"/>
  <unicode hex="05DB"/>
  <outline>
    <contour>
      <point x="216" y="0" type="line" smooth="yes"/>
      <point x="421" y="0"/>
      <point x="500" y="109"/>
      <point x="508" y="263" type="curve" smooth="yes"/>
      <point x="509" y="283"/>
      <point x="509" y="288"/>
      <point x="508" y="308" type="curve" smooth="yes"/>
      <point x="500" y="462"/>
      <point x="421" y="571"/>
      <point x="216" y="571" type="curve" smooth="yes"/>
      <point x="64" y="571" type="line" smooth="yes"/>
      <point x="49" y="571"/>
      <point x="37" y="559"/>
      <point x="37" y="544" type="curve" smooth="yes"/>
      <point x="37" y="413" type="line" smooth="yes"/>
      <point x="37" y="398"/>
      <point x="49" y="386"/>
      <point x="64" y="386" type="curve" smooth="yes"/>
      <point x="211" y="386" type="line" smooth="yes"/>
      <point x="260" y="386"/>
      <point x="292" y="361"/>
      <point x="295" y="311" type="curve" smooth="yes"/>
      <point x="296" y="291"/>
      <point x="296" y="280"/>
      <point x="295" y="260" type="curve" smooth="yes"/>
      <point x="292" y="210"/>
      <point x="260" y="185"/>
      <point x="211" y="185" type="curve" smooth="yes"/>
      <point x="64" y="185" type="line" smooth="yes"/>
      <point x="49" y="185"/>
      <point x="37" y="173"/>
      <point x="37" y="158" type="curve" smooth="yes"/>
      <point x="37" y="27" type="line" smooth="yes"/>
      <point x="37" y="12"/>
      <point x="49" y="0"/>
      <point x="64" y="0" type="curve" smooth="yes"/>
    </contour>
    <contour>
      <point x="249" y="0" type="move" name="bottom"/>
    </contour>
    <contour>
      <point x="269" y="520" type="move" name="top"/>
    </contour>
    <contour>
      <point x="20" y="0" type="move" name="bottomleft"/>
    </contour>
    <contour>
      <point x="20" y="520" type="move" name="topleft"/>
    </contour>
    <contour>
      <point x="173" y="260" type="move" name="center"/>
    </contour>
  </outline>
</glyph>
<glyph name="finalpehebrew" format="1">
  <advance width="590"/>
  <unicode hex="05E3"/>
  <outline>
    <contour>
      <point x="257" y="388" type="line" smooth="yes"/>
      <point x="305" y="389"/>
      <point x="332" y="361"/>
      <point x="335" y="311" type="curve"/>
      <point x="335" y="-97" type="line"/>
      <point x="335" y="-112"/>
      <point x="347" y="-124"/>
      <point x="362" y="-124" type="curve" smooth="yes"/>
      <point x="522" y="-124" type="line" smooth="yes"/>
      <point x="537" y="-124"/>
      <point x="549" y="-112"/>
      <point x="549" y="-97" type="curve"/>
      <point x="548" y="308" type="line"/>
      <point x="540" y="462"/>
      <point x="461" y="571"/>
      <point x="279" y="571" type="curve" smooth="yes"/>
      <point x="56" y="571" type="line" smooth="yes"/>
      <point x="41" y="571"/>
      <point x="29" y="560"/>
      <point x="29" y="544" type="curve" smooth="yes"/>
      <point x="29" y="398" type="line"/>
      <point x="29" y="280"/>
      <point x="94" y="207"/>
      <point x="162" y="200" type="curve" smooth="yes"/>
      <point x="221" y="194" type="line" smooth="yes"/>
      <point x="237" y="192"/>
      <point x="258" y="204"/>
      <point x="258" y="222" type="curve" smooth="yes"/>
      <point x="257" y="302" type="line" smooth="yes"/>
      <point x="257" y="314"/>
      <point x="251" y="327"/>
      <point x="240" y="332" type="curve" smooth="yes"/>
      <point x="219" y="341" type="line" smooth="yes"/>
      <point x="207" y="346"/>
      <point x="205" y="364"/>
      <point x="205" y="380" type="curve"/>
      <point x="205" y="387" type="line"/>
    </contour>
    <contour>
      <point x="284" y="0" type="move" name="bottom"/>
    </contour>
    <contour>
      <point x="284" y="520" type="move" name="top"/>
    </contour>
    <contour>
      <point x="20" y="0" type="move" name="bottomleft"/>
    </contour>
    <contour>
      <point x="20" y="520" type="move" name="topleft"/>
    </contour>
    <contour>
      <point x="290" y="242" type="move" name="center"/>
    </contour>
  </outline>
</glyph>
<glyph name="pehebrew" format="1">
  <advance width="597"/>
  <unicode hex="05E4"/>
  <outline>
    <contour>
      <point x="271" y="386" type="line" smooth="yes"/>
      <point x="320" y="386"/>
      <point x="367" y="361"/>
      <point x="370" y="311" type="curve" smooth="yes"/>
      <point x="371" y="291"/>
      <point x="371" y="280"/>
      <point x="370" y="260" type="curve" smooth="yes"/>
      <point x="367" y="210"/>
      <point x="320" y="185"/>
      <point x="271" y="185" type="curve" smooth="yes"/>
      <point x="74" y="185" type="line" smooth="yes"/>
      <point x="59" y="185"/>
      <point x="47" y="173"/>
      <point x="47" y="158" type="curve" smooth="yes"/>
      <point x="47" y="27" type="line" smooth="yes"/>
      <point x="47" y="12"/>
      <point x="59" y="0"/>
      <point x="74" y="0" type="curve" smooth="yes"/>
      <point x="276" y="0" type="line" smooth="yes"/>
      <point x="481" y="0"/>
      <point x="560" y="109"/>
      <point x="568" y="263" type="curve" smooth="yes"/>
      <point x="569" y="283"/>
      <point x="569" y="288"/>
      <point x="568" y="308" type="curve" smooth="yes"/>
      <point x="560" y="462"/>
      <point x="481" y="571"/>
      <point x="276" y="571" type="curve" smooth="yes"/>
      <point x="63" y="571" type="line" smooth="yes"/>
      <point x="48" y="571"/>
      <point x="39" y="559"/>
      <point x="36" y="544" type="curve" smooth="yes"/>
      <point x="36" y="398" type="line"/>
      <point x="36" y="300"/>
      <point x="101" y="227"/>
      <point x="169" y="220" type="curve" smooth="yes"/>
      <point x="212" y="215" type="line" smooth="yes"/>
      <point x="243" y="212"/>
      <point x="265" y="228"/>
      <point x="265" y="253" type="curve" smooth="yes"/>
      <point x="264" y="322" type="line" smooth="yes"/>
      <point x="264" y="334"/>
      <point x="258" y="347"/>
      <point x="247" y="352" type="curve" smooth="yes"/>
      <point x="226" y="361" type="line" smooth="yes"/>
      <point x="219" y="364"/>
      <point x="214" y="371"/>
      <point x="212" y="380" type="curve"/>
      <point x="212" y="386" type="line"/>
    </contour>
    <contour>
      <point x="280" y="0" type="move" name="bottom"/>
    </contour>
    <contour>
      <point x="280" y="520" type="move" name="top"/>
    </contour>
    <contour>
      <point x="30" y="0" type="move" name="bottomleft"/>
    </contour>
    <contour>
      <point x="30" y="520" type="move" name="topleft"/>
    </contour>
    <contour>
      <point x="313" y="250" type="move" name="center"/>
    </contour>
  </outline>
</glyph>
<glyph name="tavhebrew" format="1">
  <advance width="751"/>
  <unicode hex="05EA"/>
  <outline>
    <contour>
      <point x="413" y="396" type="line" smooth="yes"/>
      <point x="462" y="396"/>
      <point x="487" y="371"/>
      <point x="487" y="321" type="curve" smooth="yes"/>
      <point x="487" y="26" type="line" smooth="yes"/>
      <point x="487" y="11"/>
      <point x="499" y="0"/>
      <point x="514" y="0" type="curve" smooth="yes"/>
      <point x="683" y="0" type="line" smooth="yes"/>
      <point x="698" y="0"/>
      <point x="710" y="12"/>
      <point x="710" y="27" type="curve" smooth="yes"/>
      <point x="710" y="326" type="line" smooth="yes"/>
      <point x="710" y="505"/>
      <point x="604" y="571"/>
      <point x="419" y="571" type="curve" smooth="yes"/>
      <point x="96" y="571" type="line" smooth="yes"/>
      <point x="81" y="571"/>
      <point x="69" y="559"/>
      <point x="69" y="544" type="curve" smooth="yes"/>
      <point x="69" y="423" type="line" smooth="yes"/>
      <point x="69" y="408"/>
      <point x="81" y="396"/>
      <point x="96" y="396" type="curve" smooth="yes"/>
    </contour>
    <contour>
      <point x="200" y="482"/>
      <point x="183" y="462"/>
      <point x="174" y="441" type="curve" smooth="yes"/>
      <point x="152" y="388"/>
      <point x="146" y="333"/>
      <point x="146" y="284" type="curve"/>
      <point x="146" y="165" type="line"/>
      <point x="62" y="165" type="line" smooth="yes"/>
      <point x="47" y="165"/>
      <point x="35" y="153"/>
      <point x="35" y="138" type="curve" smooth="yes"/>
      <point x="35" y="27" type="line" smooth="yes"/>
      <point x="35" y="12"/>
      <point x="47" y="0"/>
      <point x="62" y="0" type="curve" smooth="yes"/>
      <point x="324" y="0" type="line" smooth="yes"/>
      <point x="339" y="0"/>
      <point x="351" y="12"/>
      <point x="351" y="27" type="curve"/>
      <point x="339" y="284" type="line"/>
      <point x="339" y="350"/>
      <point x="345" y="394"/>
      <point x="368" y="441" type="curve" smooth="yes"/>
      <point x="377" y="459"/>
      <point x="362" y="482"/>
      <point x="311" y="482" type="curve"/>
      <point x="250" y="482" type="line"/>
    </contour>
    <contour>
      <point x="416" y="0" type="move" name="bottom"/>
    </contour>
    <contour>
      <point x="376" y="520" type="move" name="top"/>
    </contour>
    <contour>
      <point x="20" y="0" type="move" name="bottomleft"/>
    </contour>
    <contour>
      <point x="20" y="520" type="move" name="topleft"/>
    </contour>
    <contour>
      <point x="413" y="260" type="move" name="center"/>
    </contour>
  </outline>
</glyph>
<glyph name="quoteleft" format="1">
  <advance width="300"/>
  <unicode hex="2018"/>
  <outline>
    <contour>
      <point x="277" y="686" type="line" name="hr00" smooth="yes"/>
      <point x="277" y="688"/>
      <point x="277" y="686"/>
      <point x="277" y="688" type="curve" smooth="yes"/>
      <point x="277" y="700"/>
      <point x="267" y="710"/>
      <point x="255" y="710" type="curve" smooth="yes"/>
      <point x="154" y="710" type="line" smooth="yes"/>
      <point x="128" y="710"/>
      <point x="116" y="691"/>
      <point x="111" y="678" type="curve" smooth="yes"/>
      <point x="16" y="436" type="line" smooth="yes"/>
      <point x="15" y="433"/>
      <point x="15" y="431"/>
      <point x="15" y="429" type="curve" smooth="yes"/>
      <point x="15" y="417"/>
      <point x="25" y="407"/>
      <point x="37" y="407" type="curve" smooth="yes"/>
      <point x="197" y="407" type="line" smooth="yes"/>
      <point x="224" y="407"/>
      <point x="237" y="428"/>
      <point x="240" y="446" type="curve" smooth="yes"/>
    </contour>
  </outline>
</glyph>
<glyph name="guilsinglleft" format="1">
  <advance width="342"/>
  <unicode hex="2039"/>
  <outline>
    <contour>
      <point x="201" y="329" type="line" name="hr00"/>
      <point x="270" y="398" type="line" smooth="yes"/>
      <point x="283" y="411"/>
      <point x="288" y="420"/>
      <point x="288" y="443" type="curve" smooth="yes"/>
      <point x="288" y="584" type="line" smooth="yes"/>
      <point x="288" y="596"/>
      <point x="278" y="606"/>
      <point x="266" y="606" type="curve" smooth="yes"/>
      <point x="265" y="606"/>
      <point x="258" y="606"/>
      <point x="252" y="601" type="curve" smooth="yes"/>
      <point x="35" y="390" type="line" smooth="yes"/>
      <point x="27" y="383"/>
      <point x="21" y="374"/>
      <point x="21" y="362" type="curve" smooth="yes"/>
      <point x="21" y="296" type="line" smooth="yes"/>
      <point x="21" y="284"/>
      <point x="27" y="275"/>
      <point x="35" y="268" type="curve" smooth="yes"/>
      <point x="252" y="57" type="line" smooth="yes"/>
      <point x="258" y="52"/>
      <point x="265" y="52"/>
      <point x="266" y="52" type="curve" smooth="yes"/>
      <point x="278" y="52"/>
      <point x="288" y="62"/>
      <point x="288" y="74" type="curve" smooth="yes"/>
      <point x="288" y="215" type="line" smooth="yes"/>
      <point x="288" y="238"/>
      <point x="283" y="247"/>
      <point x="270" y="260" type="curve" smooth="yes"/>
    </contour>
  </outline>
</glyph>
<glyph name="guilsinglright" format="1">
  <advance width="342"/>
  <unicode hex="203A"/>
  <outline>
    <contour>
      <point x="141" y="329" type="line" name="hr00"/>
      <point x="72" y="398" type="line" smooth="yes"/>
      <point x="59" y="411"/>
      <point x="54" y="420"/>
      <point x="54" y="443" type="curve" smooth="yes"/>
      <point x="54" y="584" type="line" smooth="yes"/>
      <point x="54" y="596"/>
      <point x="64" y="606"/>
      <point x="76" y="606" type="curve" smooth="yes"/>
      <point x="77" y="606"/>
      <point x="84" y="606"/>
      <point x="90" y="601" type="curve" smooth="yes"/>
      <point x="307" y="390" type="line" smooth="yes"/>
      <point x="315" y="383"/>
      <point x="321" y="374"/>
      <point x="321" y="362" type="curve" smooth="yes"/>
      <point x="321" y="296" type="line" smooth="yes"/>
      <point x="321" y="284"/>
      <point x="315" y="275"/>
      <point x="307" y="268" type="curve" smooth="yes"/>
      <point x="90" y="57" type="line" smooth="yes"/>
      <point x="84" y="52"/>
      <point x="77" y="52"/>
      <point x="76" y="52" type="curve" smooth="yes"/>
      <point x="64" y="52"/>
      <point x="54" y="62"/>
      <point x="54" y="74" type="curve" smooth="yes"/>
      <point x="54" y="215" type="line" smooth="yes"/>
      <point x="54" y="238"/>
      <point x="59" y="247"/>
      <point x="72" y="260" type="curve" smooth="yes"/>
    </contour>
  </outline>
</glyph>
<glyph name="fraction" format="1">
  <advance width="160"/>
  <unicode hex="2044"/>
  <outline>
    <contour>
      <point x="-232" y="31" type="line" name="hr00" smooth="yes"/>
      <point x="-235" y="27"/>
      <point x="-236" y="22"/>
      <point x="-236" y="20" type="curve" smooth="yes"/>
      <point x="-236" y="8"/>
      <point x="-226" y="0"/>
      <point x="-212" y="0" type="curve" smooth="yes"/>
      <point x="-138" y="0" type="line" smooth="yes"/>
      <point x="-119" y="0"/>
      <point x="-111" y="7"/>
      <point x="-102" y="19" type="curve" smooth="yes"/>
      <point x="392" y="669" type="line" smooth="yes"/>
      <point x="395" y="673"/>
      <point x="396" y="678"/>
      <point x="396" y="680" type="curve" smooth="yes"/>
      <point x="396" y="692"/>
      <point x="386" y="700"/>
      <point x="372" y="700" type="curve" smooth="yes"/>
      <point x="298" y="700" type="line" smooth="yes"/>
      <point x="279" y="700"/>
      <point x="271" y="693"/>
      <point x="262" y="681" type="curve" smooth="yes"/>
    </contour>
  </outline>
</glyph>
<glyph name="threeinferior" format="1">
  <advance width="365"/>
  <unicode hex="2083"/>
  <outline>
    <contour>
      <point x="36" y="158" type="curve"/>
      <point x="36" y="94" type="line" smooth="yes"/>
      <point x="36" y="81"/>
      <point x="45" y="72"/>
      <point x="58" y="72" type="curve" smooth="yes"/>
      <point x="152" y="72" type="line"/>
      <point x="112" y="33" type="line" smooth="yes"/>
      <point x="105" y="26"/>
      <point x="102" y="22"/>
      <point x="102" y="12" type="curve" smooth="yes"/>
      <point x="102" y="-17" type="line" smooth="yes"/>
      <point x="102" y="-28"/>
      <point x="110" y="-37"/>
      <point x="122" y="-37" type="curve" name="hr01" smooth="yes"/>
      <point x="171" y="-37" type="line" smooth="yes"/>
      <point x="191" y="-37"/>
      <point x="202" y="-40"/>
      <point x="202" y="-54" type="curve" smooth="yes"/>
      <point x="202" y="-66"/>
      <point x="193" y="-75"/>
      <point x="171" y="-75" type="curve" smooth="yes"/>
      <point x="140" y="-75"/>
      <point x="145" y="-59"/>
      <point x="126" y="-59" type="curve" name="hr02" smooth="yes"/>
      <point x="35" y="-59" type="line" smooth="yes"/>
      <point x="29" y="-59"/>
      <point x="17" y="-65"/>
      <point x="18" y="-78" type="curve" smooth="yes"/>
      <point x="21" y="-111"/>
      <point x="55" y="-175"/>
      <point x="177" y="-175" type="curve" smooth="yes"/>
      <point x="272" y="-175"/>
      <point x="341" y="-127"/>
      <point x="341" y="-58" type="curve" smooth="yes"/>
      <point x="341" y="5"/>
      <point x="301" y="30"/>
      <point x="251" y="43" type="curve"/>
      <point x="306" y="81" type="line" smooth="yes"/>
      <point x="317" y="88"/>
      <point x="319" y="93"/>
      <point x="319" y="103" type="curve" smooth="yes"/>
      <point x="319" y="158" type="line" smooth="yes"/>
      <point x="319" y="171"/>
      <point x="310" y="180"/>
      <point x="297" y="180" type="curve" smooth="yes"/>
      <point x="58" y="180" type="line" smooth="yes"/>
      <point x="45" y="180"/>
      <point x="36" y="171"/>
    </contour>
  </outline>
</glyph>
<glyph name="eightinferior" format="1">
  <advance width="368"/>
  <unicode hex="2088"/>
  <outline>
    <contour>
      <point x="183" y="185" type="curve" smooth="yes"/>
      <point x="74" y="185"/>
      <point x="36" y="132"/>
      <point x="36" y="79" type="curve" smooth="yes"/>
      <point x="36" y="51"/>
      <point x="47" y="29"/>
      <point x="67" y="14" type="curve"/>
      <point x="42" y="-1"/>
      <point x="24" y="-29"/>
      <point x="24" y="-62" type="curve" name="hr01" smooth="yes"/>
      <point x="24" y="-119"/>
      <point x="66" y="-175"/>
      <point x="183" y="-175" type="curve" smooth="yes"/>
      <point x="300" y="-175"/>
      <point x="344" y="-122"/>
      <point x="344" y="-65" type="curve" smooth="yes"/>
      <point x="344" y="-32"/>
      <point x="326" y="0"/>
      <point x="299" y="14" type="curve"/>
      <point x="320" y="30"/>
      <point x="329" y="52"/>
      <point x="329" y="80" type="curve" name="hr02" smooth="yes"/>
      <point x="329" y="133"/>
      <point x="292" y="185"/>
    </contour>
    <contour>
      <point x="214" y="-63" type="curve" smooth="yes"/>
      <point x="214" y="-79"/>
      <point x="201" y="-89"/>
      <point x="183" y="-89" type="curve" smooth="yes"/>
      <point x="165" y="-89"/>
      <point x="151" y="-79"/>
      <point x="151" y="-63" type="curve" smooth="yes"/>
      <point x="151" y="-46"/>
      <point x="165" y="-36"/>
      <point x="183" y="-36" type="curve" smooth="yes"/>
      <point x="201" y="-36"/>
      <point x="214" y="-46"/>
    </contour>
    <contour>
      <point x="212" y="72" type="curve" smooth="yes"/>
      <point x="212" y="58"/>
      <point x="201" y="48"/>
      <point x="183" y="48" type="curve" smooth="yes"/>
      <point x="165" y="48"/>
      <point x="155" y="58"/>
      <point x="155" y="72" type="curve" smooth="yes"/>
      <point x="155" y="85"/>
      <point x="165" y="96"/>
      <point x="183" y="96" type="curve" smooth="yes"/>
      <point x="201" y="96"/>
      <point x="212" y="85"/>
    </contour>
  </outline>
</glyph>
<glyph name="parenleftinferior" format="1">
  <advance width="261"/>
  <unicode hex="208D"/>
  <outline>
    <contour>
      <point x="209" y="-114" type="curve" smooth="yes"/>
      <point x="162" y="-103"/>
      <point x="144" y="-62"/>
      <point x="144" y="10" type="curve" smooth="yes"/>
      <point x="144" y="82"/>
      <point x="162" y="123"/>
      <point x="209" y="134" type="curve" smooth="yes"/>
      <point x="223" y="137"/>
      <point x="236" y="140"/>
      <point x="236" y="155" type="curve" name="hr01" smooth="yes"/>
      <point x="236" y="223" type="line" smooth="yes"/>
      <point x="236" y="238"/>
      <point x="227" y="245"/>
      <point x="212" y="245" type="curve" smooth="yes"/>
      <point x="139" y="245"/>
      <point x="24" y="198"/>
      <point x="24" y="10" type="curve" smooth="yes"/>
      <point x="24" y="-178"/>
      <point x="139" y="-225"/>
      <point x="212" y="-225" type="curve" smooth="yes"/>
      <point x="227" y="-225"/>
      <point x="236" y="-218"/>
      <point x="236" y="-203" type="curve" smooth="yes"/>
      <point x="236" y="-135" type="line" smooth="yes"/>
      <point x="236" y="-120"/>
      <point x="223" y="-117"/>
    </contour>
  </outline>
</glyph>
<glyph name="summation" format="1">
  <advance width="679"/>
  <unicode hex="2211"/>
  <outline>
    <contour>
      <point x="71" y="469" type="line" name="hr00" smooth="yes"/>
      <point x="56" y="481"/>
      <point x="41" y="492"/>
      <point x="41" y="519" type="curve" smooth="yes"/>
      <point x="41" y="673" type="line" smooth="yes"/>
      <point x="41" y="688"/>
      <point x="53" y="700"/>
      <point x="68" y="700" type="curve" smooth="yes"/>
      <point x="602" y="700" type="line" smooth="yes"/>
      <point x="617" y="700"/>
      <point x="629" y="688"/>
      <point x="629" y="673" type="curve" smooth="yes"/>
      <point x="629" y="495" type="line" smooth="yes"/>
      <point x="629" y="480"/>
      <point x="617" y="468"/>
      <point x="602" y="468" type="curve" smooth="yes"/>
      <point x="385" y="468" type="line"/>
      <point x="596" y="308" type="line" smooth="yes"/>
      <point x="613" y="295"/>
      <point x="629" y="283"/>
      <point x="629" y="264" type="curve" smooth="yes"/>
      <point x="629" y="236" type="line" smooth="yes"/>
      <point x="629" y="217"/>
      <point x="613" y="205"/>
      <point x="596" y="192" type="curve" smooth="yes"/>
      <point x="385" y="32" type="line"/>
      <point x="602" y="32" type="line" smooth="yes"/>
      <point x="617" y="32"/>
      <point x="629" y="20"/>
      <point x="629" y="5" type="curve" smooth="yes"/>
      <point x="629" y="-173" type="line" smooth="yes"/>
      <point x="629" y="-188"/>
      <point x="617" y="-200"/>
      <point x="602" y="-200" type="curve" smooth="yes"/>
      <point x="68" y="-200" type="line" smooth="yes"/>
      <point x="53" y="-200"/>
      <point x="41" y="-188"/>
      <point x="41" y="-173" type="curve" smooth="yes"/>
      <point x="41" y="-19" type="line" smooth="yes"/>
      <point x="41" y="8"/>
      <point x="56" y="19"/>
      <point x="71" y="31" type="curve" smooth="yes"/>
      <point x="351" y="250" type="line"/>
    </contour>
  </outline>
</glyph>
<glyph name="infinity" format="1">
  <advance width="920"/>
  <unicode hex="221E"/>
  <outline>
    <contour>
      <point x="655" y="493" type="curve" name="hr00" smooth="yes"/>
      <point x="566" y="493"/>
      <point x="510" y="445"/>
      <point x="460" y="393" type="curve"/>
      <point x="410" y="445"/>
      <point x="354" y="493"/>
      <point x="265" y="493" type="curve" smooth="yes"/>
      <point x="111" y="493"/>
      <point x="37" y="376"/>
      <point x="37" y="271" type="curve" smooth="yes"/>
      <point x="37" y="166"/>
      <point x="111" y="49"/>
      <point x="265" y="49" type="curve" smooth="yes"/>
      <point x="354" y="49"/>
      <point x="410" y="97"/>
      <point x="460" y="150" type="curve"/>
      <point x="510" y="97"/>
      <point x="566" y="49"/>
      <point x="655" y="49" type="curve" smooth="yes"/>
      <point x="809" y="49"/>
      <point x="883" y="166"/>
      <point x="883" y="271" type="curve" smooth="yes"/>
      <point x="883" y="376"/>
      <point x="809" y="493"/>
    </contour>
    <contour>
      <point x="650" y="205" type="curve" smooth="yes"/>
      <point x="603" y="205"/>
      <point x="555" y="271"/>
      <point x="555" y="271" type="curve"/>
      <point x="555" y="271"/>
      <point x="603" y="337"/>
      <point x="650" y="337" type="curve" smooth="yes"/>
      <point x="682" y="337"/>
      <point x="720" y="311"/>
      <point x="720" y="271" type="curve" smooth="yes"/>
      <point x="720" y="231"/>
      <point x="682" y="205"/>
    </contour>
    <contour>
      <point x="270" y="205" type="curve" smooth="yes"/>
      <point x="238" y="205"/>
      <point x="200" y="231"/>
      <point x="200" y="271" type="curve" smooth="yes"/>
      <point x="200" y="311"/>
      <point x="238" y="337"/>
      <point x="270" y="337" type="curve" smooth="yes"/>
      <point x="317" y="337"/>
      <point x="365" y="271"/>
      <point x="365" y="271" type="curve"/>
      <point x="365" y="271"/>
      <point x="317" y="205"/>
    </contour>
  </outline>
</glyph>
<glyph name="fl" format="1">
  <advance width="797"/>
  <unicode hex="FB02"/>
  <outline>
    <contour>
      <point x="725" y="0" type="line" name="hr00" smooth="yes"/>
      <point x="740" y="0"/>
      <point x="752" y="12"/>
      <point x="752" y="27" type="curve" smooth="yes"/>
      <point x="752" y="713" type="line" smooth="yes"/>
      <point x="752" y="728"/>
      <point x="740" y="740"/>
      <point x="725" y="740" type="curve" smooth="yes"/>
      <point x="550" y="740" type="line" smooth="yes"/>
      <point x="535" y="740"/>
      <point x="523" y="728"/>
      <point x="523" y="713" type="curve" smooth="yes"/>
      <point x="523" y="520" type="line"/>
      <point x="340" y="520" type="line"/>
      <point x="340" y="532" type="line" smooth="yes"/>
      <point x="340" y="553"/>
      <point x="353" y="565"/>
      <point x="383" y="565" type="curve" smooth="yes"/>
      <point x="444" y="565" type="line" smooth="yes"/>
      <point x="459" y="565"/>
      <point x="471" y="577"/>
      <point x="471" y="592" type="curve" smooth="yes"/>
      <point x="471" y="713" type="line" smooth="yes"/>
      <point x="471" y="728"/>
      <point x="459" y="740"/>
      <point x="444" y="740" type="curve" smooth="yes"/>
      <point x="371" y="740" type="line" smooth="yes"/>
      <point x="226" y="740"/>
      <point x="111" y="701"/>
      <point x="111" y="537" type="curve" smooth="yes"/>
      <point x="111" y="520" type="line"/>
      <point x="42" y="520" type="line" smooth="yes"/>
      <point x="27" y="520"/>
      <point x="15" y="508"/>
      <point x="15" y="493" type="curve" smooth="yes"/>
      <point x="15" y="372" type="line" smooth="yes"/>
      <point x="15" y="357"/>
      <point x="27" y="345"/>
      <point x="42" y="345" type="curve" smooth="yes"/>
      <point x="111" y="345" type="line"/>
      <point x="111" y="27" type="line" smooth="yes"/>
      <point x="111" y="12"/>
      <point x="123" y="0"/>
      <point x="138" y="0" type="curve" smooth="yes"/>
      <point x="313" y="0" type="line" smooth="yes"/>
      <point x="328" y="0"/>
      <point x="340" y="12"/>
      <point x="340" y="27" type="curve" smooth="yes"/>
      <point x="340" y="345" type="line"/>
      <point x="523" y="345" type="line"/>
      <point x="523" y="27" type="line" smooth="yes"/>
      <point x="523" y="12"/>
      <point x="535" y="0"/>
      <point x="550" y="0" type="curve" smooth="yes"/>
    </contour>
  </outline>
</glyph>
<glyph name="Circumflex" format="1">
  <advance width="548"/>
  <outline>
    <contour>
      <point x="210" y="920" type="line" name="hr00" smooth="yes"/>
      <point x="195" y="920"/>
      <point x="186" y="915"/>
      <point x="173" y="901" type="curve" smooth="yes"/>
      <point x="61" y="779" type="line" smooth="yes"/>
      <point x="58" y="776"/>
      <point x="56" y="771"/>
      <point x="56" y="766" type="curve" smooth="yes"/>
      <point x="56" y="756"/>
      <point x="62" y="750"/>
      <point x="72" y="750" type="curve" smooth="yes"/>
      <point x="143" y="750" type="line" smooth="yes"/>
      <point x="156" y="750"/>
      <point x="169" y="750"/>
      <point x="183" y="757" type="curve" smooth="yes"/>
      <point x="275" y="799" type="line"/>
      <point x="367" y="757" type="line" smooth="yes"/>
      <point x="381" y="750"/>
      <point x="394" y="750"/>
      <point x="407" y="750" type="curve" smooth="yes"/>
      <point x="478" y="750" type="line" smooth="yes"/>
      <point x="488" y="750"/>
      <point x="494" y="756"/>
      <point x="494" y="766" type="curve" smooth="yes"/>
      <point x="494" y="771"/>
      <point x="492" y="776"/>
      <point x="489" y="779" type="curve" smooth="yes"/>
      <point x="377" y="901" type="line" smooth="yes"/>
      <point x="364" y="915"/>
      <point x="355" y="920"/>
      <point x="340" y="920" type="curve" smooth="yes"/>
    </contour>
  </outline>
</glyph>
<glyph name="Dotaccent" format="1">
  <advance width="282"/>
  <outline>
    <contour>
      <point x="73" y="932" type="line" name="hr00"/>
      <point x="60" y="932"/>
      <point x="50" y="922"/>
      <point x="50" y="909" type="curve" smooth="yes"/>
      <point x="50" y="773" type="line" smooth="yes"/>
      <point x="50" y="760"/>
      <point x="60" y="750"/>
      <point x="73" y="750" type="curve" smooth="yes"/>
      <point x="209" y="750" type="line" smooth="yes"/>
      <point x="222" y="750"/>
      <point x="232" y="760"/>
      <point x="232" y="773" type="curve" smooth="yes"/>
      <point x="232" y="909" type="line" smooth="yes"/>
      <point x="232" y="922"/>
      <point x="222" y="932"/>
      <point x="209" y="932" type="curve" smooth="yes"/>
    </contour>
  </outline>
</glyph>
<glyph name="approxequal.cap" format="1">
  <advance width="559"/>
  <outline>
    <contour>
      <point x="164" y="591" type="curve" smooth="yes"/>
      <point x="96" y="591"/>
      <point x="54" y="555"/>
      <point x="54" y="511" type="curve" smooth="yes"/>
      <point x="54" y="403" type="line" smooth="yes"/>
      <point x="54" y="378"/>
      <point x="57" y="366"/>
      <point x="76" y="366" type="curve"/>
      <point x="85" y="367"/>
      <point x="91" y="371"/>
      <point x="96" y="375" type="curve" smooth="yes"/>
      <point x="106" y="384"/>
      <point x="132" y="401"/>
      <point x="163" y="401" type="curve" smooth="yes"/>
      <point x="256" y="401"/>
      <point x="295" y="359"/>
      <point x="394" y="359" type="curve" name="hr01" smooth="yes"/>
      <point x="462" y="359"/>
      <point x="504" y="395"/>
      <point x="504" y="439" type="curve" smooth="yes"/>
      <point x="504" y="547" type="line" smooth="yes"/>
      <point x="504" y="572"/>
      <point x="501" y="584"/>
      <point x="482" y="584" type="curve"/>
      <point x="473" y="583"/>
      <point x="467" y="579"/>
      <point x="462" y="575" type="curve" smooth="yes"/>
      <point x="452" y="566"/>
      <point x="426" y="549"/>
      <point x="395" y="549" type="curve" smooth="yes"/>
      <point x="302" y="549"/>
      <point x="263" y="591"/>
    </contour>
    <contour>
      <point x="164" y="341" type="curve" smooth="yes"/>
      <point x="96" y="341"/>
      <point x="54" y="305"/>
      <point x="54" y="261" type="curve" smooth="yes"/>
      <point x="54" y="153" type="line" smooth="yes"/>
      <point x="54" y="128"/>
      <point x="57" y="116"/>
      <point x="76" y="116" type="curve"/>
      <point x="85" y="117"/>
      <point x="91" y="121"/>
      <point x="96" y="125" type="curve" smooth="yes"/>
      <point x="106" y="134"/>
      <point x="132" y="151"/>
      <point x="163" y="151" type="curve" smooth="yes"/>
      <point x="256" y="151"/>
      <point x="295" y="109"/>
      <point x="394" y="109" type="curve" name="hr03" smooth="yes"/>
      <point x="462" y="109"/>
      <point x="504" y="145"/>
      <point x="504" y="189" type="curve" smooth="yes"/>
      <point x="504" y="297" type="line" smooth="yes"/>
      <point x="504" y="322"/>
      <point x="501" y="334"/>
      <point x="482" y="334" type="curve"/>
      <point x="473" y="333"/>
      <point x="467" y="329"/>
      <point x="462" y="325" type="curve" smooth="yes"/>
      <point x="452" y="316"/>
      <point x="426" y="299"/>
      <point x="395" y="299" type="curve" smooth="yes"/>
      <point x="302" y="299"/>
      <point x="263" y="341"/>
    </contour>
  </outline>
</glyph>
<glyph name="at.cap" format="1">
  <advance width="856"/>
  <outline>
    <contour>
      <point x="825" y="303" type="curve" smooth="yes"/>
      <point x="827" y="339"/>
      <point x="828" y="391"/>
      <point x="825" y="425" type="curve" smooth="yes"/>
      <point x="810" y="601"/>
      <point x="727" y="753"/>
      <point x="424" y="753" type="curve" smooth="yes"/>
      <point x="172" y="753"/>
      <point x="54" y="581"/>
      <point x="41" y="425" type="curve" smooth="yes"/>
      <point x="38" y="390"/>
      <point x="38" y="291"/>
      <point x="41" y="254" type="curve" smooth="yes"/>
      <point x="56" y="75"/>
      <point x="173" y="-72"/>
      <point x="444" y="-72" type="curve" smooth="yes"/>
      <point x="619" y="-72"/>
      <point x="726" y="-7"/>
      <point x="784" y="64" type="curve" smooth="yes"/>
      <point x="788" y="69"/>
      <point x="791" y="73"/>
      <point x="791" y="79" type="curve" smooth="yes"/>
      <point x="792" y="96"/>
      <point x="779" y="107"/>
      <point x="764" y="107" type="curve" smooth="yes"/>
      <point x="666" y="107" type="line" smooth="yes"/>
      <point x="652" y="107"/>
      <point x="645" y="102"/>
      <point x="631" y="92" type="curve" smooth="yes"/>
      <point x="589" y="60"/>
      <point x="553" y="49"/>
      <point x="444" y="49" type="curve" name="hr01" smooth="yes"/>
      <point x="260" y="49"/>
      <point x="181" y="128"/>
      <point x="167" y="259" type="curve" smooth="yes"/>
      <point x="163" y="297"/>
      <point x="163" y="385"/>
      <point x="167" y="420" type="curve" smooth="yes"/>
      <point x="181" y="540"/>
      <point x="250" y="632"/>
      <point x="424" y="632" type="curve" smooth="yes"/>
      <point x="629" y="632"/>
      <point x="693" y="568"/>
      <point x="700" y="420" type="curve" smooth="yes"/>
      <point x="702" y="386"/>
      <point x="701" y="354"/>
      <point x="701" y="318" type="curve" smooth="yes"/>
      <point x="701" y="288"/>
      <point x="688" y="269"/>
      <point x="658" y="269" type="curve" smooth="yes"/>
      <point x="629" y="269"/>
      <point x="614" y="287"/>
      <point x="614" y="319" type="curve" smooth="yes"/>
      <point x="614" y="512" type="line" smooth="yes"/>
      <point x="614" y="527"/>
      <point x="602" y="539"/>
      <point x="587" y="539" type="curve" smooth="yes"/>
      <point x="515" y="539" type="line" smooth="yes"/>
      <point x="500" y="539"/>
      <point x="488" y="527"/>
      <point x="488" y="512" type="curve" smooth="yes"/>
      <point x="488" y="503" type="line"/>
      <point x="466" y="532"/>
      <point x="439" y="547"/>
      <point x="389" y="547" type="curve" smooth="yes"/>
      <point x="290" y="547"/>
      <point x="236" y="464"/>
      <point x="236" y="342" type="curve" smooth="yes"/>
      <point x="236" y="220"/>
      <point x="294" y="138"/>
      <point x="394" y="138" type="curve" smooth="yes"/>
      <point x="488" y="138"/>
      <point x="512" y="170"/>
      <point x="526" y="194" type="curve"/>
      <point x="545" y="172"/>
      <point x="591" y="148"/>
      <point x="658" y="148" type="curve" smooth="yes"/>
      <point x="734" y="148"/>
      <point x="819" y="202"/>
    </contour>
    <contour>
      <point x="361" y="342" type="curve" smooth="yes"/>
      <point x="361" y="407"/>
      <point x="388" y="426"/>
      <point x="424" y="426" type="curve" smooth="yes"/>
      <point x="463" y="426"/>
      <point x="488" y="407"/>
      <point x="488" y="342" type="curve" smooth="yes"/>
      <point x="488" y="276"/>
      <point x="463" y="259"/>
      <point x="424" y="259" type="curve" smooth="yes"/>
      <point x="388" y="259"/>
      <point x="361" y="277"/>
    </contour>
  </outline>
</glyph>
<glyph name="emdash.cap" format="1">
  <advance width="763"/>
  <outline>
    <contour>
      <point x="79" y="448" type="line" name="hr00" smooth="yes"/>
      <point x="64" y="448"/>
      <point x="52" y="436"/>
      <point x="52" y="421" type="curve" smooth="yes"/>
      <point x="52" y="279" type="line" smooth="yes"/>
      <point x="52" y="264"/>
      <point x="64" y="252"/>
      <point x="79" y="252" type="curve" smooth="yes"/>
      <point x="684" y="252" type="line" smooth="yes"/>
      <point x="699" y="252"/>
      <point x="711" y="264"/>
      <point x="711" y="279" type="curve" smooth="yes"/>
      <point x="711" y="421" type="line" smooth="yes"/>
      <point x="711" y="436"/>
      <point x="699" y="448"/>
      <point x="684" y="448" type="curve" smooth="yes"/>
    </contour>
  </outline>
</glyph>
<glyph name="equal.cap" format="1">
  <advance width="563"/>
  <outline>
    <contour>
      <point x="79" y="560" type="line" name="hr00" smooth="yes"/>
      <point x="64" y="560"/>
      <point x="52" y="548"/>
      <point x="52" y="533" type="curve" smooth="yes"/>
      <point x="52" y="417" type="line" smooth="yes"/>
      <point x="52" y="402"/>
      <point x="64" y="390"/>
      <point x="79" y="390" type="curve" smooth="yes"/>
      <point x="484" y="390" type="line" smooth="yes"/>
      <point x="499" y="390"/>
      <point x="511" y="402"/>
      <point x="511" y="417" type="curve" smooth="yes"/>
      <point x="511" y="533" type="line" smooth="yes"/>
      <point x="511" y="548"/>
      <point x="499" y="560"/>
      <point x="484" y="560" type="curve" smooth="yes"/>
    </contour>
    <contour>
      <point x="79" y="310" type="line" smooth="yes"/>
      <point x="64" y="310"/>
      <point x="52" y="298"/>
      <point x="52" y="283" type="curve" smooth="yes"/>
      <point x="52" y="167" type="line" smooth="yes"/>
      <point x="52" y="152"/>
      <point x="64" y="140"/>
      <point x="79" y="140" type="curve" smooth="yes"/>
      <point x="484" y="140" type="line" smooth="yes"/>
      <point x="499" y="140"/>
      <point x="511" y="152"/>
      <point x="511" y="167" type="curve" smooth="yes"/>
      <point x="511" y="283" type="line" smooth="yes"/>
      <point x="511" y="298"/>
      <point x="499" y="310"/>
      <point x="484" y="310" type="curve" smooth="yes"/>
    </contour>
  </outline>
</glyph>
<glyph name="f_f_i" format="1">
  <advance width="1197"/>
  <outline>
    <contour>
      <point x="1125" y="0" type="line" name="hr00"/>
      <point x="1140" y="0"/>
      <point x="1152" y="12"/>
      <point x="1152" y="27" type="curve"/>
      <point x="1152" y="493" type="line"/>
      <point x="1152" y="508"/>
      <point x="1140" y="520"/>
      <point x="1125" y="520" type="curve"/>
      <point x="752" y="520" type="line"/>
      <point x="752" y="532" type="line"/>
      <point x="752" y="553"/>
      <point x="765" y="565"/>
      <point x="795" y="565" type="curve"/>
      <point x="1125" y="565" type="line"/>
      <point x="1140" y="565"/>
      <point x="1152" y="577"/>
      <point x="1152" y="592" type="curve"/>
      <point x="1152" y="713" type="line"/>
      <point x="1152" y="728"/>
      <point x="1140" y="740"/>
      <point x="1125" y="740" type="curve"/>
      <point x="783" y="740" type="line"/>
      <point x="638" y="740"/>
      <point x="523" y="701"/>
      <point x="523" y="537" type="curve"/>
      <point x="523" y="520" type="line"/>
      <point x="340" y="520" type="line"/>
      <point x="340" y="532" type="line"/>
      <point x="340" y="553"/>
      <point x="353" y="565"/>
      <point x="383" y="565" type="curve"/>
      <point x="464" y="565" type="line"/>
      <point x="479" y="565"/>
      <point x="491" y="577"/>
      <point x="491" y="592" type="curve"/>
      <point x="491" y="713" type="line"/>
      <point x="491" y="728"/>
      <point x="479" y="740"/>
      <point x="464" y="740" type="curve"/>
      <point x="371" y="740" type="line"/>
      <point x="226" y="740"/>
      <point x="111" y="701"/>
      <point x="111" y="537" type="curve"/>
      <point x="111" y="520" type="line"/>
      <point x="42" y="520" type="line"/>
      <point x="27" y="520"/>
      <point x="15" y="508"/>
      <point x="15" y="493" type="curve"/>
      <point x="15" y="372" type="line"/>
      <point x="15" y="357"/>
      <point x="27" y="345"/>
      <point x="42" y="345" type="curve"/>
      <point x="111" y="345" type="line"/>
      <point x="111" y="27" type="line"/>
      <point x="111" y="12"/>
      <point x="123" y="0"/>
      <point x="138" y="0" type="curve"/>
      <point x="313" y="0" type="line"/>
      <point x="328" y="0"/>
      <point x="340" y="12"/>
      <point x="340" y="27" type="curve"/>
      <point x="340" y="345" type="line"/>
      <point x="523" y="345" type="line"/>
      <point x="523" y="27" type="line"/>
      <point x="523" y="12"/>
      <point x="535" y="0"/>
      <point x="550" y="0" type="curve"/>
      <point x="725" y="0" type="line"/>
      <point x="740" y="0"/>
      <point x="752" y="12"/>
      <point x="752" y="27" type="curve"/>
      <point x="752" y="345" type="line"/>
      <point x="923" y="345" type="line"/>
      <point x="923" y="27" type="line"/>
      <point x="923" y="12"/>
      <point x="935" y="0"/>
      <point x="950" y="0" type="curve"/>
    </contour>
  </outline>
</glyph>
<glyph name="guilsinglright.cap" format="1">
  <advance width="347"/>
  <outline>
    <contour>
      <point x="142" y="350" type="line" name="hr00"/>
      <point x="73" y="419" type="line" smooth="yes"/>
      <point x="60" y="432"/>
      <point x="55" y="441"/>
      <point x="55" y="464" type="curve" smooth="yes"/>
      <point x="55" y="605" type="line" smooth="yes"/>
      <point x="55" y="617"/>
      <point x="65" y="627"/>
      <point x="77" y="627" type="curve" smooth="yes"/>
      <point x="78" y="627"/>
      <point x="85" y="627"/>
      <point x="91" y="622" type="curve" smooth="yes"/>
      <point x="308" y="411" type="line" smooth="yes"/>
      <point x="316" y="404"/>
      <point x="322" y="395"/>
      <point x="322" y="383" type="curve" smooth="yes"/>
      <point x="322" y="317" type="line" smooth="yes"/>
      <point x="322" y="305"/>
      <point x="316" y="296"/>
      <point x="308" y="289" type="curve" smooth="yes"/>
      <point x="91" y="78" type="line" smooth="yes"/>
      <point x="85" y="73"/>
      <point x="78" y="73"/>
      <point x="77" y="73" type="curve" smooth="yes"/>
      <point x="65" y="73"/>
      <point x="55" y="83"/>
      <point x="55" y="95" type="curve" smooth="yes"/>
      <point x="55" y="236" type="line" smooth="yes"/>
      <point x="55" y="259"/>
      <point x="60" y="268"/>
      <point x="73" y="281" type="curve" smooth="yes"/>
    </contour>
  </outline>
</glyph>
<glyph name="hyphen.cap" format="1">
  <advance width="483"/>
  <outline>
    <contour>
      <point x="79" y="448" type="line" name="hr00" smooth="yes"/>
      <point x="64" y="448"/>
      <point x="52" y="436"/>
      <point x="52" y="421" type="curve" smooth="yes"/>
      <point x="52" y="279" type="line" smooth="yes"/>
      <point x="52" y="264"/>
      <point x="64" y="252"/>
      <point x="79" y="252" type="curve" smooth="yes"/>
      <point x="404" y="252" type="line" smooth="yes"/>
      <point x="419" y="252"/>
      <point x="431" y="264"/>
      <point x="431" y="279" type="curve" smooth="yes"/>
      <point x="431" y="421" type="line" smooth="yes"/>
      <point x="431" y="436"/>
      <point x="419" y="448"/>
      <point x="404" y="448" type="curve" smooth="yes"/>
    </contour>
  </outline>
</glyph>
<glyph name="nine.otlf" format="1">
  <advance width="700"/>
  <outline>
    <contour>
      <point x="149" y="35" type="line" name="hr00" smooth="yes"/>
      <point x="147" y="32"/>
      <point x="145" y="28"/>
      <point x="145" y="22" type="curve" smooth="yes"/>
      <point x="145" y="10"/>
      <point x="155" y="0"/>
      <point x="167" y="0" type="curve" smooth="yes"/>
      <point x="368" y="0" type="line" smooth="yes"/>
      <point x="390" y="0"/>
      <point x="402" y="13"/>
      <point x="407" y="20" type="curve" smooth="yes"/>
      <point x="539" y="196" type="line"/>
      <point x="602" y="285"/>
      <point x="671" y="360"/>
      <point x="671" y="459" type="curve" smooth="yes"/>
      <point x="671" y="608"/>
      <point x="554" y="710"/>
      <point x="346" y="710" type="curve" smooth="yes"/>
      <point x="138" y="710"/>
      <point x="30" y="585"/>
      <point x="30" y="449" type="curve" smooth="yes"/>
      <point x="30" y="289"/>
      <point x="183" y="218"/>
      <point x="280" y="210" type="curve"/>
    </contour>
    <contour>
      <point x="285" y="450" type="curve" smooth="yes"/>
      <point x="285" y="492"/>
      <point x="311" y="515"/>
      <point x="349" y="515" type="curve" smooth="yes"/>
      <point x="387" y="515"/>
      <point x="413" y="492"/>
      <point x="413" y="450" type="curve" smooth="yes"/>
      <point x="413" y="408"/>
      <point x="388" y="385"/>
      <point x="349" y="385" type="curve" smooth="yes"/>
      <point x="310" y="385"/>
      <point x="285" y="408"/>
    </contour>
  </outline>
</glyph>
<glyph name="parenright.otlf" format="1">
  <advance width="700"/>
  <outline>
    <contour>
      <point x="535" y="351" type="curve" name="hr00" smooth="yes"/>
      <point x="535" y="691"/>
      <point x="382" y="818"/>
      <point x="190" y="818" type="curve" smooth="yes"/>
      <point x="175" y="818"/>
      <point x="163" y="806"/>
      <point x="163" y="791" type="curve" smooth="yes"/>
      <point x="163" y="664" type="line" smooth="yes"/>
      <point x="163" y="649"/>
      <point x="175" y="638"/>
      <point x="190" y="637" type="curve" smooth="yes"/>
      <point x="298" y="627"/>
      <point x="324" y="495"/>
      <point x="324" y="351" type="curve" smooth="yes"/>
      <point x="324" y="207"/>
      <point x="298" y="74"/>
      <point x="190" y="64" type="curve" smooth="yes"/>
      <point x="175" y="63"/>
      <point x="163" y="52"/>
      <point x="163" y="37" type="curve" smooth="yes"/>
      <point x="163" y="-90" type="line" smooth="yes"/>
      <point x="163" y="-105"/>
      <point x="175" y="-117"/>
      <point x="190" y="-117" type="curve" smooth="yes"/>
      <point x="382" y="-117"/>
      <point x="535" y="11"/>
    </contour>
  </outline>
</glyph>
